# This file uses centimeters as units for non-parametric coordinates.

mtllib rock6_low.mtl
g default
v 85.154788 7.567355 109.705674
v -38.008088 -72.439659 95.031726
v 60.145253 -100.964233 -44.968484
v -102.337323 -14.928757 -67.552734
v 105.494369 76.898494 -6.508507
v 128.019269 -9.965539 -9.694977
v -95.856423 -30.632060 71.254022
v -86.260635 -81.058489 73.931913
v 0.856321 -45.368046 -126.930138
v -64.698650 -88.229990 -87.441917
v -9.838182 104.848431 48.020454
v 9.861360 73.778949 -83.646104
v 98.023414 -44.012372 89.395817
v -124.552340 -73.946182 -7.697351
v 74.071445 21.644164 -103.544145
v 36.395054 -0.992551 126.930138
v -96.182851 37.318111 46.926080
v 121.989004 -10.206978 -41.213954
v -8.613092 -106.187262 -82.493154
v -37.492851 89.007249 66.135849
v 9.464410 30.041689 -112.718662
v 93.313676 -87.530491 57.442808
v 60.483993 -78.780414 -95.785827
v -4.202789 55.188505 112.632651
v -95.128461 -101.776054 25.858794
v 43.258362 -100.459153 71.433510
v -70.334580 -59.986898 -98.707417
v -79.691547 -106.625667 6.219665
v 34.357940 33.357852 -112.390392
v -115.721966 -66.273751 -41.357386
v -121.837906 -6.136965 -10.513720
v 44.901788 -61.174418 115.993628
v 81.350519 -86.030861 77.919747
v 21.667273 107.224486 54.172160
v 44.956660 -38.991238 -121.260854
v 91.316448 94.964805 -34.009320
v -64.781464 -107.392652 -51.465654
v 63.798219 35.782205 112.981795
v 87.972997 60.365548 91.746404
v 99.391690 -89.104712 -26.937097
v 98.600662 -48.220415 -70.136231
v 22.186664 -93.060186 -97.640674
v 3.798599 98.983541 -5.107796
v 49.443422 105.927420 -32.115600
v 74.333833 -99.828597 27.448325
v -29.930834 33.224182 -101.470828
v -90.058855 -100.401351 -41.947974
v -1.004975 -87.442130 103.253794
v 88.804398 56.744532 -86.283892
v -35.178932 77.458429 84.134272
v 67.983967 -23.331911 116.480036
v 75.543390 -92.520225 -56.703958
v -59.971684 -97.436088 70.320054
v -117.562390 -29.008049 39.280016
v 74.017982 -68.827640 100.763216
v 62.819444 53.274701 -98.312873
v -129.294126 -34.438126 16.606700
v -7.271477 -93.133992 -103.845630
v -107.055992 -77.567824 44.060523
v 58.716396 70.188344 102.293045
v 99.084230 28.202203 -85.196954
v 116.382524 54.424618 19.112994
v 129.294126 -0.943419 12.952161
v -64.472444 -105.678670 54.688995
v 103.466280 -89.130449 13.983956
v -109.925445 11.902289 50.361857
v 24.066699 100.695567 -42.487231
v -43.367941 8.329581 94.546145
v -97.323030 -83.359731 -54.540262
v 79.986336 92.852677 -0.586345
v -105.098475 -100.393640 -8.408134
v 59.790756 -62.382926 -105.918424
v -82.173472 45.145954 60.175149
v -45.057393 38.011327 -58.852293
v -17.553246 64.283547 -50.135095
v -70.242552 34.355124 -15.942362
v -31.907474 66.510901 -14.114172
v 103.998538 -25.635613 77.197646
v -84.425090 -29.499352 -95.508966
v -78.871647 -3.852122 -88.919265
v 89.795780 -39.184790 103.288707
v 76.326100 -99.863502 -15.105912
v -124.590994 -72.914238 13.459258
v 21.544619 -101.714748 78.558735
v -120.770631 9.880552 26.519303
v 9.579446 56.313204 115.869454
v -12.319830 29.773915 -109.127803
v -34.725590 -32.519229 -117.702150
v -72.989509 -41.251018 -104.548862
v 15.490039 -21.729104 118.736116
v 24.974400 -43.360117 -125.443696
v 111.024400 62.423877 34.012087
v 40.940531 59.234488 -98.457922
v 123.183269 -8.137523 30.788169
v 102.355930 -84.386976 37.554715
v 17.771870 -100.412312 -84.585554
v 55.401232 27.034632 -109.917881
v -1.497104 -61.848434 -120.300743
v 4.990790 -54.013849 112.918197
v -97.507905 -25.756840 -80.827184
v 21.754864 106.501452 29.799871
v 82.585747 44.133100 102.567859
v -128.232746 -3.694554 11.425484
v -72.110800 -104.517452 -55.909758
v 119.294520 -19.832458 -54.455160
v -85.590622 -94.722096 65.017841
v 94.216108 -64.163424 81.966602
v 23.691241 22.297715 123.810232
v 48.334304 -17.509986 123.964179
v -106.995759 -12.336436 59.459789
v 67.435403 107.392652 -26.030280
v 85.479644 99.359773 -25.640011
v 60.484271 75.271768 93.621987
vt 0.158446 0.527135
vt 0.178388 0.444891
vt 0.284087 0.550384
vt 0.211742 0.583229
vt 0.133138 0.550957
vt 0.292074 0.456815
vt 0.263752 0.571455
vt 0.143295 0.574812
vt 0.055508 0.484552
vt 0.101049 0.548438
vt 0.188913 0.414378
vt 0.281857 0.432073
vt 0.376246 0.435514
vt 0.097263 0.592652
vt 0.036834 0.449272
vt 0.065287 0.559344
vt 0.056302 0.521221
vt 0.173622 0.378308
vt 0.334087 0.398582
vt 0.312254 0.239756
vt 0.397335 0.404664
vt 0.275588 0.110836
vt 0.328322 0.218801
vt 0.405330 0.267771
vt 0.395928 0.389728
vt 0.352287 0.162910
vt 0.430747 0.303329
vt 0.332249 0.084180
vt 0.424644 0.114984
vt 0.449223 0.245556
vt 0.403042 0.093427
vt 0.469214 0.138542
vt 0.752153 0.563681
vt 0.810202 0.748489
vt 0.723948 0.673629
vt 0.761418 0.199819
vt 0.760778 0.778953
vt 0.703146 0.733411
vt 0.858488 0.613379
vt 0.796337 0.101087
vt 0.730483 0.191533
vt 0.778628 0.831929
vt 0.730782 0.788612
vt 0.685338 0.684608
vt 0.675375 0.429944
vt 0.801731 0.065150
vt 0.710312 0.171414
vt 0.686914 0.820140
vt 0.664652 0.745737
vt 0.650779 0.684232
vt 0.643074 0.496454
vt 0.627282 0.575926
vt 0.723507 0.094312
vt 0.765942 0.055752
vt 0.715040 0.141070
vt 0.723101 0.856946
vt 0.640339 0.850772
vt 0.612228 0.778901
vt 0.621206 0.742895
vt 0.584433 0.470199
vt 0.547693 0.346753
vt 0.561821 0.529344
vt 0.659054 0.865560
vt 0.614255 0.705370
vt 0.492135 0.498310
vt 0.501142 0.426638
vt 0.584008 0.674726
vt 0.551072 0.679651
vt 0.503888 0.769452
vt 0.449433 0.664817
vt 0.468599 0.632686
vt 0.451776 0.578723
vt 0.409222 0.734664
vt 0.665276 0.905720
vt 0.371455 0.766938
vt 0.001714 0.502545
vt 0.326970 0.934678
vt 0.755251 0.881458
vt 0.656162 0.028994
vt 0.017122 0.602446
vt 0.039495 0.697861
vt 0.634644 0.896730
vt 0.761926 0.041897
vt 0.322620 0.051407
vt 0.565356 0.887175
vt 0.634513 0.062068
vt 0.610611 0.017531
vt 0.436348 0.037126
vt 0.107595 0.644411
vt 0.411702 0.560611
vt 0.321211 0.576328
vt 0.312782 0.589769
vt 0.424073 0.420197
vt 0.387520 0.742433
vt 0.455460 0.425299
vt 0.433955 0.529067
vt 0.506675 0.303945
vt 0.472477 0.292734
vt 0.559314 0.256561
vt 0.518681 0.254674
vt 0.594622 0.264042
vt 0.259320 0.676665
vt 0.441571 0.863231
vt 0.104002 0.707024
vt 0.210882 0.663477
vt 0.180505 0.646856
vt 0.260640 0.607985
vt 0.168780 0.614191
vt 0.592916 0.137409
vt 0.645217 0.170912
vt 0.605196 0.111788
vt 0.554753 0.129757
vt 0.482230 0.248046
vt 0.549327 0.998008
vt 0.357454 0.914425
vt 0.333733 0.727824
vt 0.263359 0.068031
vt 0.184083 0.934646
vt 0.139882 0.866470
vt 0.386555 0.833366
vt 0.251965 0.684014
vt 0.211462 0.699379
vt 0.138155 0.771203
vt 0.486681 0.900292
vt 0.169965 0.700690
vt 0.389687 0.807207
vt 0.531381 0.942317
vt 0.337086 0.672759
vt 0.008315 0.640819
vt 0.211221 0.115442
vt 0.193563 0.063131
vt 0.263566 0.256396
vt 0.593150 0.037848
vt 0.418465 0.018493
vt 0.496826 0.118489
vt 0.719674 0.233594
vt 0.849122 0.660523
vt 0.623739 0.278041
vt 0.581146 0.398646
vt 0.849282 0.001992
vt 0.858629 0.049605
vt 0.832928 0.127800
vt 0.705622 0.651316
vt 0.821496 0.652819
vt 0.741801 0.509364
vn 0.903105 0.072802 0.423204
vn 0.950624 -0.055279 0.305381
vn 0.821346 0.393662 0.412821
vn 0.803172 0.095369 0.588065
vn 0.003297 -0.996449 0.084137
vn 0.104023 -0.994574 0.001346
vn 0.128609 -0.990934 0.038845
vn 0.069276 -0.973977 0.215799
vn -0.482417 0.095900 0.870676
vn -0.369327 -0.220648 0.902725
vn -0.146834 0.120751 0.981763
vn 0.472715 0.841618 0.261187
vn 0.822779 0.466830 0.324200
vn -0.097963 0.110544 -0.989031
vn -0.285994 0.119748 -0.950720
vn -0.235160 0.330998 -0.913860
vn -0.101337 0.314880 -0.943706
vn -0.491303 0.162579 0.855681
vn -0.405239 0.523332 0.749603
vn -0.601765 0.322483 0.730674
vn 0.988418 -0.101855 -0.112494
vn 0.826730 -0.562412 0.014483
vn 0.835374 -0.525311 -0.161857
vn 0.873820 -0.223714 -0.431729
vn 0.827475 0.082884 -0.555352
vn 0.740389 -0.239770 -0.627961
vn 0.585222 -0.227920 -0.778183
vn -0.518678 0.585651 -0.622885
vn -0.602613 0.604593 -0.520889
vn -0.840302 0.441127 -0.315119
vn -0.702117 -0.441565 -0.558616
vn -0.906137 -0.142370 -0.398305
vn -0.787084 -0.139880 -0.600776
vn -0.717016 -0.148043 -0.681155
vn -0.593901 0.038058 0.803637
vn -0.592471 -0.206808 0.778594
vn -0.867763 0.326983 -0.374259
vn 0.022418 -0.999524 0.021206
vn 0.028727 -0.998615 -0.044087
vn 0.241280 -0.745128 -0.621746
vn 0.459904 -0.722702 -0.515937
vn 0.485686 -0.781354 -0.391912
vn 0.247739 -0.945869 -0.209661
vn -0.417031 -0.371163 -0.829652
vn -0.153689 -0.410760 -0.898697
vn -0.176346 -0.584011 -0.792359
vn -0.353079 -0.606159 -0.712676
vn -0.525603 0.834983 -0.162929
vn -0.487882 0.843464 -0.224813
vn -0.654913 0.738602 -0.159864
vn -0.591653 0.802698 -0.074982
vn 0.132453 0.884093 0.448147
vn 0.432345 0.851695 0.296131
vn 0.283138 0.955749 0.079855
vn 0.037412 0.928216 -0.370156
vn -0.121803 0.989962 -0.071685
vn 0.041616 0.303958 -0.951776
vn 0.111559 -0.018220 -0.993591
vn 0.648604 -0.173153 0.741168
vn 0.385944 -0.163215 0.907969
vn 0.156421 -0.386485 0.908935
vn 0.334966 -0.582312 0.740750
vn -0.058657 -0.725441 0.685781
vn -0.203538 -0.778059 0.594304
vn -0.867280 -0.072101 0.492571
vn -0.835288 -0.244137 0.492637
vn -0.519250 -0.828273 0.210576
vn -0.477835 -0.762064 0.436957
vn 0.901930 0.412855 -0.126779
vn 0.942233 0.240763 -0.232875
vn 0.587088 0.661454 -0.466696
vn 0.563970 0.589428 -0.578371
vn -0.018229 0.662239 0.749071
vn 0.042948 0.651812 0.757164
vn -0.997306 -0.029679 0.067081
vn -0.892477 -0.309588 0.328085
vn -0.103590 -0.976941 -0.186696
vn -0.320590 0.789687 -0.523084
vn 0.077234 0.691815 -0.717933
vn -0.605411 0.743647 -0.283665
vn -0.783730 0.616920 -0.071960
vn 0.931360 -0.287876 0.222928
vn 0.903404 -0.205346 0.376423
vn 0.894855 -0.292972 0.336751
vn 0.441097 -0.020427 -0.897227
vn 0.554401 0.014895 -0.832116
vn 0.242670 0.237901 0.940486
vn -0.567912 -0.748692 -0.341959
vn -0.577177 -0.811555 -0.090802
vn -0.353248 -0.830420 -0.430835
vn 0.375134 -0.748012 0.547496
vn 0.518364 -0.813074 0.264970
vn -0.490274 0.037810 -0.870748
vn 0.243006 0.212605 -0.946439
vn -0.964811 -0.139648 -0.222796
vn -0.846910 0.039762 0.530248
vn -0.621010 0.253586 0.741647
vn 0.090734 0.015688 0.995752
vn -0.265402 -0.101817 0.958747
vn 0.119236 -0.072221 0.990236
vn 0.228320 -0.949005 0.217394
vn -0.276988 0.874985 -0.397088
vn 0.466328 0.874537 0.133129
vn 0.495819 0.275466 0.823579
vn 0.207715 -0.911754 -0.354343
vn -0.606660 0.739775 -0.291027
vn -0.230573 -0.153908 0.960806
vn 0.288151 0.392082 -0.873637
vn -0.972057 0.165511 0.166470
vn 0.969432 0.244705 0.017926
vn 0.998183 0.042758 0.042443
vn -0.609776 0.735349 -0.295695
vn -0.608440 0.736425 -0.295768
s 1
g rock6_low
usemtl initialShadingGroup
f 78/1/1 94/2/2 39/3/3 1/4/4
f 64/118/5 82/75/6 45/120/7 84/77/8
f 68/69/9 2/85/10 108/126/11
f 70/13/12 39/3/3 92/6/13
f 9/109/14 88/110/15 87/101/16 21/99/17
f 68/69/9 24/73/18 50/70/19 73/68/20
f 6/132/21 65/130/22 40/22/23 105/23/24
f 61/24/25 105/23/24 41/26/26 72/29/27
f 46/45/28 80/145/29 31/143/30
f 69/40/31 30/142/32 100/36/33 79/41/34
f 7/58/35 8/57/36 2/85/10
f 4/144/37 30/34/32 31/35/30
f 105/23/24 40/22/23 41/26/26
f 28/119/38 19/122/39 82/75/6 64/118/5
f 42/88/40 23/31/41 52/28/42 3/84/43
f 27/55/44 98/111/45 58/86/46 10/53/47
f 11/72/48 43/65/49 17/67/50 20/71/51
f 34/90/52 113/91/53 70/13/12
f 34/90/52 111/93/54 44/95/55 101/96/56
f 21/99/17 29/100/57 91/112/58 9/109/14
f 81/8/59 51/108/60 32/89/61 55/14/62
f 64/74/5 84/114/8 48/127/63 53/82/64
f 54/49/65 59/48/66 8/57/36 7/58/35
f 25/56/67 106/63/68 59/48/66
f 5/19/69 18/20/70 61/24/25
f 36/25/71 49/27/72 44/95/55
f 1/4/4 51/108/60 81/8/59
f 86/128/73 60/92/74 34/90/52 50/70/19
f 59/48/66 54/49/65 57/38/75 83/43/76
f 6/132/21 18/20/70 5/19/69
f 37/123/77 19/122/39 28/119/38
f 21/99/17 12/61/78 93/97/79 29/100/57
f 43/65/49 77/62/80 85/50/81 17/67/50
f 95/9/82 94/2/2 13/5/83 107/10/84
f 61/24/25 72/29/27 35/32/85 15/30/86
f 91/135/58 72/29/27 42/88/40
f 24/73/18 68/69/9 108/126/11
f 86/128/73 108/102/11 38/107/87 60/92/74
f 30/142/32 47/46/88 71/141/89
f 104/54/90 10/53/47 58/86/46 37/83/77
f 65/130/22 45/131/7 82/117/6 40/22/23
f 107/10/84 33/16/91 22/17/92 95/9/82
f 46/138/28 89/47/93 80/136/29
f 89/47/93 69/40/31 79/41/34
f 106/63/68 25/56/67 64/74/5 53/82/64
f 97/113/94 15/30/86 35/32/85
f 49/27/72 93/97/79 44/95/55
f 14/37/95 30/34/32 71/42/89
f 30/34/32 14/37/95 57/38/75 31/35/30
f 85/50/81 110/59/96 66/64/97
f 32/89/61 48/81/63 55/14/62
f 16/105/98 90/125/99 32/89/61 109/106/100
f 26/80/101 22/17/92 33/16/91
f 55/14/62 48/81/63 84/129/8 33/16/91
f 11/72/48 20/71/51 34/90/52
f 43/65/49 11/72/48 101/96/56 67/66/102
f 35/32/85 72/29/27 91/135/58
f 35/32/85 91/135/58 29/100/57 97/113/94
f 36/25/71 5/19/69 49/27/72
f 34/90/52 70/13/12 112/21/103 111/93/54
f 28/140/38 71/141/89 37/83/77
f 71/141/89 47/46/88 104/54/90 37/83/77
f 1/4/4 38/107/87 16/105/98 109/106/100
f 113/91/53 39/3/3 70/13/12
f 102/7/104 38/107/87 1/4/4
f 41/26/26 40/22/23 52/28/42
f 41/26/26 52/28/42 23/31/41
f 19/122/39 96/121/105 3/116/43
f 37/83/77 58/86/46 19/79/39
f 12/139/78 75/60/106 43/65/49 67/66/102
f 44/95/55 93/97/79 12/61/78 67/66/102
f 44/95/55 67/66/102 101/96/56
f 22/17/92 26/80/101 45/76/7 65/15/22
f 87/101/16 46/138/28 12/61/78 21/99/17
f 89/47/93 46/138/28 87/101/16 88/110/15
f 10/53/47 104/54/90 47/46/88 69/40/31
f 27/55/44 10/53/47 69/40/31
f 48/127/63 2/85/10 8/57/36 53/82/64
f 99/104/107 48/81/63 32/89/61
f 56/98/108 49/27/72 15/30/86 97/113/94
f 5/19/69 61/24/25 49/27/72
f 73/68/20 50/70/19 20/71/51 17/67/50
f 20/71/51 50/70/19 34/90/52
f 52/28/42 40/22/23 82/117/6 3/84/43
f 59/48/66 106/63/68 8/57/36
f 110/59/96 7/58/35 66/64/97
f 107/10/84 55/14/62 33/16/91
f 103/44/109 57/38/75 54/49/65
f 42/133/40 58/86/46 98/111/45
f 96/87/105 19/79/39 58/86/46 42/133/40
f 14/37/95 71/42/89 83/43/76
f 57/38/75 14/37/95 83/43/76
f 60/92/74 38/107/87 102/7/104
f 49/27/72 61/24/25 15/30/86
f 6/18/21 5/19/69 62/12/110 63/11/111
f 39/3/3 94/2/2 92/6/13
f 63/11/111 65/15/22 6/18/21
f 25/56/67 28/78/38 64/74/5
f 94/2/2 95/9/82 65/15/22 63/11/111
f 17/67/50 85/50/81 66/64/97 73/68/20
f 68/69/9 7/58/35 2/85/10
f 7/58/35 68/69/9 73/68/20 66/64/97
f 69/40/31 47/46/88 30/142/32
f 112/21/103 70/13/12 5/19/69
f 70/13/12 92/6/13 5/19/69
f 83/43/76 71/42/89 25/56/67
f 25/56/67 71/42/89 28/78/38
f 72/29/27 23/31/41 42/88/40
f 41/26/26 23/31/41 72/29/27
f 74/51/112 46/45/28 31/143/30 76/52/113
f 75/60/106 12/139/78 46/45/28 74/51/112
f 77/62/80 76/52/113 85/50/81
f 76/52/113 77/62/80 75/60/106 74/51/112
f 43/65/49 75/60/106 77/62/80
f 78/1/1 13/5/83 94/2/2
f 13/5/83 78/1/1 1/4/4 81/8/59
f 89/47/93 79/41/34 80/136/29
f 100/137/33 30/34/32 4/144/37
f 80/39/29 100/137/33 4/144/37
f 80/145/29 4/33/37 31/143/30
f 81/8/59 55/14/62 107/10/84 13/5/83
f 19/122/39 3/116/43 82/75/6
f 83/43/76 25/56/67 59/48/66
f 26/80/101 33/16/91 84/129/8
f 26/115/101 84/77/8 45/120/7
f 110/59/96 85/50/81 103/44/109 54/49/65
f 76/52/113 31/143/30 85/50/81
f 86/94/73 24/73/18 108/126/11
f 50/70/19 24/73/18 86/94/73
f 98/111/45 27/55/44 88/110/15
f 88/110/15 27/55/44 89/47/93
f 27/55/44 69/40/31 89/47/93
f 108/126/11 2/85/10 90/103/99
f 2/85/10 48/127/63 99/124/107
f 91/112/58 42/133/40 98/111/45
f 63/11/111 62/12/110 92/6/13 94/2/2
f 92/6/13 62/12/110 5/19/69
f 49/27/72 56/98/108 93/97/79
f 29/100/57 93/97/79 56/98/108 97/113/94
f 95/9/82 22/17/92 65/15/22
f 96/134/105 42/88/40 3/84/43
f 9/109/14 98/111/45 88/110/15
f 91/112/58 98/111/45 9/109/14
f 90/103/99 2/85/10 99/124/107
f 90/125/99 99/104/107 32/89/61
f 79/41/34 100/36/33 80/136/29
f 11/72/48 34/90/52 101/96/56
f 60/92/74 102/7/104 39/3/3
f 102/7/104 1/4/4 39/3/3
f 85/50/81 31/143/30 103/44/109
f 31/35/30 57/38/75 103/44/109
f 61/24/25 18/20/70 105/23/24
f 18/20/70 6/132/21 105/23/24
f 106/63/68 53/82/64 8/57/36
f 108/102/11 90/125/99 16/105/98
f 108/102/11 16/105/98 38/107/87
f 109/106/100 51/108/60 1/4/4
f 109/106/100 32/89/61 51/108/60
f 110/59/96 54/49/65 7/58/35
f 36/25/71 44/95/55 111/93/54 112/21/103
f 112/21/103 5/19/69 36/25/71
f 113/91/53 60/92/74 39/3/3
f 34/90/52 60/92/74 113/91/53
