# This file uses centimeters as units for non-parametric coordinates.

mtllib rock5_low.mtl
g default
v 73.180527 -87.805137 -89.183646
v -26.707022 -117.102550 84.846898
v 61.850112 -117.855905 -37.308320
v 11.989459 30.054333 123.245766
v -98.521245 39.787159 90.098373
v 108.312860 -14.799187 -78.303416
v 39.568117 40.875714 -86.953762
v -68.704452 -116.282707 33.616045
v 74.633422 58.882892 78.748607
v 74.192914 -91.999440 80.710266
v -84.515182 -18.359575 -96.127198
v -62.800432 112.384552 44.942645
v -128.247141 -16.840725 -7.386516
v 96.548273 53.958827 -13.164863
v -90.230529 -92.282776 -54.513367
v -27.043993 -63.913938 120.745103
v -116.097481 86.501719 -25.452507
v -18.602686 25.795424 -110.942241
v -65.561788 -101.264420 71.264251
v -18.724233 -85.319684 -106.815088
v 29.349124 95.533986 45.617504
v 46.235569 -50.801502 -123.462860
v 88.183342 -47.523531 99.248184
v -42.752136 77.194302 -70.481597
v 5.184612 -114.900334 88.877504
v -59.779839 89.859357 85.200241
v 101.375071 -88.419804 -43.763622
v 20.640427 -116.400152 -82.332040
v 74.945639 1.900342 -105.970057
v 112.996910 -80.366484 26.981926
v -95.231986 -93.041010 31.142805
v -92.470499 104.049050 4.054886
v -0.661287 109.097658 9.779860
v -24.705333 -114.818785 -71.514450
v -77.919342 100.319707 -35.237934
v 127.347771 37.700433 16.642107
v 75.124603 8.847052 104.663971
v -109.668702 17.520630 64.625090
v 131.977924 9.013387 -11.617468
v 7.629790 60.406818 109.538445
v -127.374343 15.490444 -46.175401
v -8.948990 28.987453 126.231863
v -123.646801 -6.606596 18.729980
v -60.148474 -84.613914 -91.495948
v 104.563233 14.001819 80.505271
v 112.487328 -86.111080 -3.052191
v -7.985949 74.941038 -66.292591
v -97.079581 -34.490695 -81.450401
v 64.683211 -69.473271 -106.200053
v 53.481792 -116.790685 67.221022
v -64.301855 116.820998 14.513174
v -84.721078 -24.781733 87.693815
v -33.031904 -9.508880 -121.182648
v 86.598568 18.166633 -65.825036
v -8.975579 -114.492373 -86.012528
v -87.721959 103.279322 50.969718
v -15.864873 -35.619897 127.474982
v -131.005452 46.290960 -32.380702
v -12.759276 -90.968601 111.934948
v -103.834231 -92.346422 6.992832
v -112.151372 74.097456 53.800819
v -79.346369 56.321059 101.792544
v -83.673163 71.564008 89.714873
v 17.879562 -75.284624 -119.485972
v 125.738423 -13.562472 -10.851448
v 47.980756 54.694169 -63.224585
v 122.922351 -11.527786 -52.495404
v 54.569491 80.202624 74.603691
v 119.886745 -14.838879 30.100883
v -1.329139 -71.724365 123.293163
v 107.865557 57.912037 9.461225
v -84.655655 -77.523194 -80.364372
v 112.753391 24.441117 61.334815
v -18.056316 0.981068 -126.469930
v 76.011039 -117.052091 17.478658
v -24.136630 90.183991 -31.813571
v 22.422992 -20.246905 -127.474982
v 49.000985 -23.175637 -124.066173
v 2.761078 82.627983 -45.103911
v -41.313517 -81.997992 109.870996
v 18.682713 48.285343 -87.229403
v 107.920535 -79.129922 48.457971
v -102.301177 -92.156809 -15.987255
v -87.750446 -100.165400 -35.615966
v 87.035754 -91.040942 -67.058807
v -119.422661 74.635813 4.187860
v -50.050210 72.518602 104.721584
v -118.800814 44.332718 65.466388
v 69.405867 -64.490486 107.081479
v -60.260591 -13.792961 -110.112959
v 29.594575 -117.285754 79.488807
v 38.778685 -117.141867 -75.817962
v -80.079612 -111.634422 25.053650
v 41.694283 -85.689236 102.503275
v -98.441218 104.390106 30.047051
v -45.942049 -114.979428 -39.623373
v -114.798025 -26.754694 -39.457130
v -23.951068 109.148289 30.240701
v -57.500479 -100.341916 -71.218998
v -14.147993 72.682536 100.876491
v -131.977924 32.837722 11.546773
v 28.048358 71.213751 93.043163
v -66.621065 19.815587 104.981852
v 18.554323 -116.761166 26.415680
v 90.653700 -4.874175 -95.033539
v 78.441924 -117.587926 -0.970343
v -53.735085 117.855905 23.654978
v -80.738492 -80.318031 71.938652
v -19.274762 -100.124593 -94.957966
v 102.518206 -7.146077 89.386742
v -52.552984 -95.707244 90.763688
v 101.472175 -38.857922 89.365540
v 31.385457 -58.695182 -123.975243
v 117.840294 -53.471416 -0.294633
v -130.775194 20.445030 22.986210
v -87.911646 89.514903 69.288233
v 104.372088 47.589748 40.458155
v -38.431269 48.276150 121.664267
v 83.468217 73.192135 20.378195
v -107.632107 97.981563 17.363856
v -38.398852 57.845853 117.623969
v 33.084753 101.152975 28.282103
v -46.540843 105.698853 50.053762
v -124.066092 21.802189 -52.306666
v -76.983478 93.639166 -44.680331
v 106.968299 -87.027731 -29.660636
v 118.273075 -18.699874 -61.926832
v -99.296564 -15.357698 -84.808980
v 111.260106 14.242536 -41.400371
v -41.546394 108.508008 1.406006
v 39.137595 -67.880287 116.097235
v -87.381418 -44.559148 75.127353
v -73.470346 -69.855367 89.676218
v -90.029840 1.204371 -84.119975
v 87.436232 10.246153 97.297248
v -44.625042 -117.254909 66.317886
v 49.558211 96.704283 39.649339
vt 0.115014 0.727704
vt 0.092470 0.886695
vt 0.001852 0.809483
vt 0.077026 0.357409
vt 0.157266 0.749756
vt 0.134383 0.879468
vt 0.034110 0.175723
vt 0.091257 0.259651
vt 0.136853 0.362237
vt 0.055239 0.621040
vt 0.117669 0.679666
vt 0.172451 0.880482
vt 0.103703 0.929556
vt 0.036292 0.128783
vt 0.070866 0.182920
vt 0.098419 0.565262
vt 0.140337 0.663241
vt 0.207971 0.666882
vt 0.208439 0.778825
vt 0.236749 0.889592
vt 0.209769 0.905284
vt 0.077116 0.125925
vt 0.117610 0.136990
vt 0.156263 0.149183
vt 0.185323 0.391540
vt 0.181399 0.360030
vt 0.190102 0.436825
vt 0.177863 0.599718
vt 0.219349 0.716575
vt 0.273815 0.803907
vt 0.276348 0.871141
vt 0.088391 0.951073
vt 0.165282 0.299964
vt 0.197117 0.177956
vt 0.200646 0.473971
vt 0.186356 0.518936
vt 0.187708 0.550404
vt 0.221884 0.609854
vt 0.229949 0.710698
vt 0.304481 0.787177
vt 0.279283 0.776875
vt 0.761747 0.642325
vt 0.291665 0.754878
vt 0.631727 0.664468
vt 0.720194 0.747816
vt 0.688905 0.781100
vt 0.635302 0.643334
vt 0.739236 0.729883
vt 0.752401 0.825337
vt 0.667226 0.046303
vt 0.653199 0.804336
vt 0.607455 0.681700
vt 0.663162 0.267788
vt 0.749596 0.647886
vt 0.778449 0.702803
vt 0.609748 0.801811
vt 0.571207 0.697190
vt 0.650618 0.310170
vt 0.596107 0.244671
vt 0.622674 0.135368
vt 0.927852 0.506253
vt 0.602494 0.602477
vt 0.527752 0.773633
vt 0.543965 0.708759
vt 0.511263 0.177837
vt 0.586444 0.130334
vt 0.536555 0.024661
vt 0.557273 0.637683
vt 0.557184 0.808250
vt 0.585191 0.332346
vt 0.551052 0.524787
vt 0.571639 0.481961
vt 0.526835 0.286600
vt 0.521523 0.082123
vt 0.491753 0.155776
vt 0.472374 0.663058
vt 0.531073 0.338956
vt 0.498543 0.224767
vt 0.501481 0.259763
vt 0.445763 0.234148
vt 0.466937 0.242342
vt 0.470897 0.117969
vt 0.515924 0.404992
vt 0.448555 0.324613
vt 0.476231 0.615084
vt 0.417006 0.360419
vt 0.434131 0.425141
vt 0.266600 0.451485
vt 0.230402 0.402047
vt 0.291473 0.343928
vt 0.363675 0.334924
vt 0.244505 0.471021
vt 0.233705 0.359236
vt 0.321127 0.306981
vt 0.392545 0.421840
vt 0.311205 0.471005
vt 0.268468 0.495865
vt 0.240652 0.325180
vt 0.407248 0.450733
vt 0.355804 0.490728
vt 0.257597 0.512999
vt 0.222616 0.548867
vt 0.299172 0.523500
vt 0.390646 0.584399
vt 0.272081 0.591768
vt 0.344739 0.570735
vt 0.439443 0.663825
vt 0.384913 0.622473
vt 0.279985 0.607411
vt 0.399486 0.727259
vt 0.339093 0.637418
vt 0.483312 0.798363
vt 0.410894 0.770599
vt 0.236189 0.977382
vt 0.841707 0.548482
vt 0.725510 0.415411
vt 0.285931 0.928452
vt 0.885113 0.626687
vt 0.663255 0.901579
vt 0.823477 0.377509
vt 0.365533 0.941845
vt 0.367839 0.974365
vt 0.456642 0.063314
vt 0.851307 0.653783
vt 0.087128 0.068478
vt 0.312771 0.894663
vt 0.382837 0.912618
vt 0.454749 0.904717
vt 0.242126 0.079090
vt 0.146420 0.097942
vt 0.183329 0.116166
vt 0.234236 0.310438
vt 0.264085 0.262448
vt 0.330574 0.245317
vt 0.345212 0.788500
vt 0.388258 0.786065
vt 0.552316 0.836069
vt 0.020112 0.981054
vt 0.798945 0.662929
vt 0.633869 0.045024
vt 0.922644 0.475986
vt 0.707699 0.476060
vt 0.321090 0.976077
vt 0.791688 0.376141
vt 0.683673 0.873750
vt 0.166290 0.002054
vt 0.137566 0.037163
vt 0.878708 0.426865
vt 0.743123 0.384824
vt 0.916731 0.595650
vt 0.707769 0.602606
vt 0.013314 0.882279
vt 0.056447 0.237804
vt 0.100289 0.406912
vt 0.033896 0.679085
vt 0.135822 0.456957
vt 0.016057 0.933094
vt 0.043592 0.082718
vt 0.567819 0.871542
vt 0.485915 0.873540
vt 0.413621 0.998008
vt 0.514022 0.461073
vt 0.571304 0.379405
vt 0.662202 0.189696
vt 0.691045 0.596702
vt 0.674651 0.128475
vt 0.809487 0.779688
vt 0.656919 0.562634
vt 0.222646 0.043988
vt 0.423965 0.095420
vt 0.496456 0.001992
vt 0.298690 0.247805
vn -0.363755 0.010079 0.931440
vn -0.481382 -0.084329 0.872445
vn -0.181808 -0.050770 0.982023
vn 0.251303 -0.226896 0.940938
vn 0.266298 0.185696 0.945834
vn 0.102232 0.111113 0.988535
vn 0.158223 0.886409 0.435022
vn -0.036446 0.827930 0.559645
vn 0.127816 0.827505 0.546715
vn 0.135496 0.874072 0.466517
vn -0.893445 -0.251535 0.372137
vn -0.877900 -0.315039 0.360613
vn -0.874561 -0.227351 0.428315
vn -0.861055 -0.244299 0.445985
vn 0.399414 0.813953 -0.421839
vn 0.329634 0.852269 -0.406177
vn 0.277578 0.920378 -0.275418
vn 0.518714 0.747768 -0.414462
vn 0.849992 -0.284407 -0.443426
vn 0.739696 -0.600419 -0.303886
vn 0.675491 -0.602586 -0.424972
vn 0.546868 0.571513 0.611807
vn 0.375630 0.196899 0.905612
vn 0.475962 0.321790 0.818481
vn -0.248495 0.595995 -0.763570
vn -0.131610 0.517986 -0.845203
vn -0.456703 0.404449 -0.792365
vn -0.445306 0.475375 -0.758763
vn 0.591623 -0.258819 -0.763541
vn 0.695174 0.143065 -0.704461
vn 0.789323 -0.016906 -0.613746
vn 0.605497 -0.518651 -0.603635
vn -0.070319 -0.996511 0.044963
vn -0.196036 -0.980324 0.023107
vn -0.103554 -0.991901 -0.073546
vn -0.429018 -0.003005 -0.903291
vn -0.290636 -0.206754 -0.934229
vn -0.269004 -0.347955 -0.898089
vn -0.395270 -0.394312 -0.829626
vn 0.912355 0.180537 0.367444
vn 0.664267 0.661076 0.348896
vn 0.797097 0.336455 0.501433
vn 0.556032 -0.591659 0.583754
vn 0.255803 -0.935435 0.243979
vn 0.848480 -0.417692 0.324984
vn 0.968724 -0.088174 0.231945
vn 0.860022 -0.182582 0.476473
vn 0.874830 -0.433139 0.216940
vn -0.920312 -0.267566 -0.285368
vn -0.842840 -0.406921 -0.352188
vn -0.861947 -0.465206 -0.201569
vn -0.973431 -0.228485 -0.015050
vn -0.428608 -0.887012 -0.171771
vn -0.430548 0.811566 0.394956
vn -0.522504 0.639444 0.564004
vn -0.113526 0.928250 0.354207
vn -0.557009 0.327515 -0.763200
vn -0.602936 0.516553 -0.607981
vn -0.987513 0.140719 0.070833
vn -0.854141 0.397742 0.335030
vn -0.934837 0.340035 0.102252
vn -0.980009 0.141636 -0.139720
vn 0.336844 0.615451 -0.712570
vn 0.564857 0.660104 -0.495176
vn 0.934828 0.283162 -0.214282
vn 0.977956 -0.208340 -0.014006
vn 0.960584 0.020995 -0.277195
vn -0.842101 -0.248519 -0.478649
vn -0.710978 -0.362941 -0.602316
vn 0.087831 -0.812540 0.576250
vn 0.263949 -0.616499 0.741795
vn -0.025535 -0.600910 0.798908
vn -0.089714 -0.846556 0.524684
vn -0.619369 -0.627221 0.472203
vn -0.781117 0.623275 0.037212
vn 0.116982 0.904047 -0.411113
vn 0.049395 0.927221 -0.371242
vn 0.178612 0.773970 -0.607509
vn 0.206354 0.657872 -0.724308
vn 0.453527 0.363001 -0.813968
vn -0.455510 -0.319959 0.830744
vn -0.467201 -0.598270 0.650996
vn -0.653433 -0.134590 0.744924
vn -0.453970 -0.138857 0.880131
vn 0.360272 -0.236897 -0.902266
vn -0.091094 -0.357127 -0.929603
vn 0.195660 -0.974291 -0.111692
vn 0.104610 -0.984971 -0.137439
vn 0.118084 0.911181 0.394722
vn 0.157809 0.912884 0.376483
vn 0.400632 0.915231 0.042977
vn 0.415106 0.705438 0.574495
vn 0.567822 0.823150 -0.001650
vn 0.096668 0.327910 -0.939750
vn -0.166052 -0.188596 -0.967914
vn 0.063015 0.433711 -0.898846
vn 0.492992 -0.153872 0.856319
vn -0.292077 0.927349 -0.233914
vn -0.118627 0.929757 -0.348539
vn -0.009261 -0.999916 -0.009104
vn -0.108287 -0.987702 -0.112774
vn -0.175542 0.632494 0.754411
vn -0.019522 0.550022 0.834922
vn 0.277411 0.497435 0.821950
vn -0.505897 0.161814 0.847281
vn -0.556651 0.484137 0.675094
vn 0.269238 -0.962785 -0.023594
vn 0.356004 -0.926598 0.121148
vn 0.022018 -0.976832 -0.212871
vn -0.255965 -0.677504 -0.689543
vn -0.382780 -0.817819 -0.429711
vn 0.333010 0.265888 -0.904659
vn 0.803317 -0.595162 -0.021528
vn 0.983559 -0.180551 -0.003558
vn -0.559228 -0.823755 0.093230
vn -0.882340 -0.447871 0.144528
vn -0.125634 0.973655 -0.190295
vn 0.332418 0.929963 -0.157059
vn -0.150222 -0.766715 -0.624164
vn 0.685660 0.565094 -0.458845
vn 0.688798 0.716039 -0.113336
vn 0.359062 -0.162135 0.919123
vn 0.953148 0.237061 0.187914
vn -0.675038 -0.002411 0.737779
vn -0.514747 0.838245 0.179943
vn -0.942450 -0.195530 -0.271212
vn -0.977062 -0.067306 0.202038
vn 0.099454 -0.971806 0.213779
vn 0.837436 0.023255 0.546041
vn 0.868195 -0.468450 -0.163686
vn -0.510933 0.037657 -0.858795
vn -0.744597 -0.054534 -0.665283
vn 0.115547 0.993026 -0.023421
vn -0.805707 -0.360025 0.470339
vn -0.651765 -0.199515 0.731708
vn 0.095569 -0.373745 0.922595
vn -0.895843 0.114251 0.429431
s 1
g rock5_low
usemtl initialShadingGroup
f 118/132/1 103/33/2 57/34/3
f 57/34/3 131/129/4 4/172/5 42/133/6
f 123/88/7 26/89/8 100/90/9 102/91/10
f 43/1/11 31/2/12 132/3/13 38/155/14
f 66/85/15 79/104/16 33/100/17 14/71/18
f 127/44/19 27/45/20 85/46/21
f 9/84/22 4/134/5 37/80/23 135/81/24
f 24/111/25 18/110/26 134/43/27 125/109/28
f 49/56/29 105/57/30 6/52/31 1/51/32
f 136/42/33 8/151/34 96/142/35
f 90/135/36 53/136/37 20/127/38 44/126/39
f 73/73/40 117/77/41 9/84/22 45/79/42
f 10/74/43 50/67/44 82/66/45
f 69/59/46 112/65/47 82/66/45 30/60/48
f 97/19/49 15/20/50 83/12/51 13/5/52
f 96/114/35 8/32/34 84/21/53
f 56/35/54 116/27/55 26/89/8 12/92/56
f 134/43/27 124/39/57 17/38/58 125/109/28
f 101/17/59 61/16/60 86/28/61 58/18/62
f 7/76/63 14/71/18 54/68/64
f 39/168/65 65/165/66 67/47/67
f 97/19/49 48/30/68 72/31/69 15/20/50
f 25/147/70 94/169/71 59/130/72 2/125/73
f 19/157/74 8/32/34 136/138/33
f 86/28/61 61/16/60 120/37/75 17/38/58
f 76/106/76 130/103/77 33/100/17 79/104/16
f 47/108/78 81/107/79 18/110/26 24/111/25
f 54/68/64 29/64/80 7/76/63
f 80/23/81 111/22/82 2/125/73 59/130/72
f 103/33/2 52/8/83 16/24/84 57/34/3
f 22/69/85 49/56/29 64/159/86
f 85/46/21 3/49/87 92/145/88 1/51/32
f 123/88/7 102/91/10 21/95/89 98/96/90
f 137/87/91 68/86/92 119/83/93
f 77/112/94 113/160/95 53/136/37
f 18/110/26 81/107/79 77/112/94 74/113/96
f 10/74/43 82/66/45 112/65/47 23/75/97
f 17/38/58 32/102/98 35/105/99 125/109/28
f 104/115/100 136/42/33 96/142/35 34/116/101
f 100/90/9 87/93/102 121/98/103 40/94/104
f 62/26/105 121/98/103 87/93/102 63/25/106
f 3/49/87 85/46/21 27/45/20 106/167/107
f 82/66/45 50/67/44 75/140/108 30/60/48
f 1/51/32 28/119/109 64/159/86
f 44/126/39 20/127/38 109/121/110 99/117/111
f 7/76/63 29/64/80 78/63/112 77/112/94
f 105/57/30 49/56/29 78/63/112 29/64/80
f 46/166/113 30/60/48 75/140/108 106/50/107
f 69/59/46 30/60/48 114/164/114 65/53/66
f 31/2/12 93/13/115 19/157/74
f 83/12/51 84/21/53 93/13/115 60/6/116
f 35/105/99 32/102/98 51/101/117 130/103/77
f 122/99/118 33/100/17 98/96/90 21/95/89
f 122/99/118 14/71/18 33/100/17
f 104/115/100 34/116/101 28/144/109 92/120/88
f 28/161/109 55/122/119 64/128/86
f 76/106/76 35/105/99 130/103/77
f 117/77/41 119/83/93 68/86/92 9/84/22
f 39/168/65 129/62/120 14/71/18 71/72/121
f 89/82/122 23/75/97 37/80/23 4/134/5
f 36/70/123 73/73/40 112/65/47 69/59/46
f 52/8/83 5/9/124 38/4/14 132/153/13
f 61/156/60 116/27/55 56/35/54 95/36/125
f 36/70/123 39/58/65 71/163/121
f 39/58/65 69/59/46 65/53/66
f 40/94/104 4/134/5 9/84/22 68/86/92
f 21/95/89 102/91/10 68/86/92 137/87/91
f 41/29/126 48/30/68 97/19/49
f 4/172/5 40/94/104 121/98/103 42/133/6
f 43/1/11 13/5/52 60/6/116 31/2/12
f 101/17/59 58/18/62 13/5/52 115/11/127
f 10/74/43 94/123/71 91/171/128 50/67/44
f 23/75/97 89/82/122 10/74/43
f 135/81/24 45/79/42 9/84/22
f 135/81/24 112/65/47 110/78/129
f 126/48/130 46/55/113 106/167/107 27/45/20
f 126/48/130 67/47/67 65/165/66 114/54/114
f 24/111/25 35/105/99 76/106/76 47/108/78
f 11/40/131 72/31/69 48/30/68 128/41/132
f 134/43/27 128/41/132 124/39/57
f 49/56/29 1/51/32 64/159/86
f 75/61/108 50/150/44 104/115/100 106/141/107
f 12/92/56 51/101/117 95/36/125 56/35/54
f 33/100/17 107/97/133 98/96/90
f 108/152/134 31/2/12 19/157/74
f 133/15/135 111/22/82 80/23/81
f 74/113/96 90/135/36 18/110/26
f 105/57/30 129/62/120 67/47/67 6/52/31
f 39/168/65 67/47/67 129/62/120
f 34/116/101 55/149/119 28/144/109
f 34/143/101 99/117/111 109/121/110 55/122/119
f 13/5/52 58/18/62 41/29/126 97/19/49
f 17/38/58 124/39/57 58/18/62
f 57/34/3 16/24/84 70/131/136
f 57/34/3 70/131/136 131/129/4
f 60/6/116 93/13/115 31/2/12
f 61/156/60 88/154/137 63/25/106 116/27/55
f 88/10/137 61/16/60 101/17/59 115/11/127
f 5/9/124 52/8/83 103/33/2
f 63/25/106 88/154/137 5/9/124 62/26/105
f 20/127/38 64/128/86 55/122/119 109/121/110
f 64/128/86 20/127/38 53/136/37 113/160/95
f 30/60/48 46/166/113 114/164/114
f 114/54/114 46/55/113 126/48/130
f 79/104/16 66/85/15 81/107/79 47/108/78
f 66/85/15 14/71/18 7/76/63
f 1/51/32 6/52/31 127/44/19 85/46/21
f 36/70/123 69/59/46 39/58/65
f 70/131/136 59/130/72 94/169/71 131/129/4
f 59/130/72 70/131/136 16/24/84 80/23/81
f 119/162/93 14/71/18 122/99/118 137/87/91
f 72/31/69 44/126/39 99/117/111 15/20/50
f 90/135/36 44/126/39 72/31/69 11/40/131
f 110/78/129 112/65/47 73/73/40 45/79/42
f 74/113/96 53/136/37 90/135/36
f 74/113/96 77/112/94 53/136/37
f 22/69/85 113/137/95 77/112/94
f 49/56/29 22/69/85 78/63/112
f 78/63/112 22/69/85 77/112/94
f 79/104/16 47/108/78 76/106/76
f 133/15/135 80/23/81 16/24/84 52/8/83
f 7/76/63 77/112/94 81/107/79
f 66/85/15 7/76/63 81/107/79
f 13/5/52 83/12/51 60/6/116
f 84/21/53 99/117/111 34/143/101 96/114/35
f 15/20/50 84/21/53 83/12/51
f 58/18/62 86/28/61 17/38/58
f 63/25/106 87/93/102 26/89/8 116/27/55
f 26/89/8 87/93/102 100/90/9
f 88/154/137 38/4/14 5/9/124
f 38/155/14 88/10/137 115/11/127 43/1/11
f 94/123/71 10/74/43 89/82/122 131/170/4
f 134/43/27 18/110/26 90/135/36 11/40/131
f 91/118/128 25/124/70 2/139/73 136/42/33
f 94/169/71 25/147/70 91/146/128
f 1/51/32 92/145/88 28/119/109
f 84/21/53 8/32/34 93/13/115
f 93/13/115 8/32/34 19/157/74
f 4/134/5 131/170/4 89/82/122
f 120/37/75 61/16/60 95/36/125
f 32/102/98 95/36/125 51/101/117
f 98/96/90 107/97/133 12/92/56 123/88/7
f 12/92/56 26/89/8 123/88/7
f 15/20/50 99/117/111 84/21/53
f 102/91/10 40/94/104 68/86/92
f 100/90/9 40/94/104 102/91/10
f 62/26/105 5/9/124 103/33/2 118/132/1
f 104/115/100 50/150/44 91/118/128 136/42/33
f 129/62/120 105/57/30 29/64/80 54/68/64
f 107/97/133 51/101/117 12/92/56
f 51/101/117 107/97/133 33/100/17 130/103/77
f 135/81/24 110/78/129 45/79/42
f 111/22/82 19/14/74 2/125/73
f 19/14/74 111/22/82 133/15/135 108/7/134
f 22/69/85 64/159/86 113/137/95
f 13/5/52 43/1/11 115/11/127
f 117/77/41 36/70/123 71/163/121 119/83/93
f 117/77/41 73/73/40 36/70/123
f 118/132/1 57/34/3 42/133/6
f 119/162/93 71/72/121 14/71/18
f 32/102/98 17/38/58 120/37/75 95/36/125
f 118/132/1 42/133/6 121/98/103
f 62/26/105 118/132/1 121/98/103
f 41/29/126 124/39/57 128/41/132 48/30/68
f 124/39/57 41/29/126 58/18/62
f 24/111/25 125/109/28 35/105/99
f 67/47/67 126/48/130 27/45/20 127/44/19
f 67/47/67 127/44/19 6/52/31
f 14/71/18 129/62/120 54/68/64
f 132/3/13 31/2/12 108/152/134
f 132/153/13 108/7/134 133/15/135 52/8/83
f 11/40/131 128/41/132 134/43/27
f 19/14/74 136/158/33 2/125/73
f 21/95/89 137/87/91 122/99/118
f 104/115/100 92/120/88 3/148/87 106/141/107
f 37/80/23 23/75/97 112/65/47 135/81/24
