# This file uses centimeters as units for non-parametric coordinates.

mtllib rock2_low.mtl
g default
v 97.833256 -112.297133 18.815365
v 68.016789 19.823380 -70.772031
v -41.099991 -108.292239 -90.971908
v -97.817997 -70.771589 27.666358
v 91.792627 74.039171 63.192917
v 53.861838 -107.174948 -84.720407
v -73.913000 73.567810 9.210481
v -35.886696 73.444912 -52.864734
v 94.932049 93.821486 36.033850
v -64.510468 -114.779565 78.692626
v -74.152638 -115.339124 -39.986944
v -92.835908 -76.698366 -59.153867
v 99.130551 35.783387 62.969180
v 77.121037 -114.507215 63.016724
v 22.906985 111.891194 58.873302
v 35.226064 116.322409 0.890124
v 23.033181 -31.207708 75.646501
v 41.620789 38.954149 -67.600004
v -53.825426 -8.828949 -80.204506
v 81.684572 88.986370 -31.944016
v 11.632546 -94.393242 90.971908
v -52.419535 24.838616 -78.036533
v 65.426424 -9.669136 73.523899
v 56.457803 -115.887713 -70.709776
v -76.349877 51.684819 47.639143
v -40.268467 100.904037 -1.496766
v 90.535247 -40.598578 51.768031
v -77.193876 -92.253920 -65.836284
v -76.745198 -19.429088 -12.940473
v -19.085828 65.714078 80.731566
v -50.395612 96.265469 53.233697
v 65.828261 65.222243 79.112006
v 78.766829 107.409986 2.580271
v 93.584000 -7.539993 -4.010992
v 90.136553 38.394587 -48.224877
v -50.002649 -31.612213 -82.247200
v -99.350952 -114.463902 11.977444
v -68.918386 38.391472 69.392773
v -27.892070 98.952987 65.355004
v 84.366392 -106.597675 -59.078629
v -60.954393 96.764041 23.018239
v -49.400531 -5.496117 73.872761
v -72.599889 13.707098 -30.055626
v 7.523993 -104.582855 -90.459166
v 44.544066 -114.769177 86.400196
v 71.698390 -95.677807 80.678210
v -59.811798 39.404154 -67.484466
v -18.662084 -114.592726 90.132215
v 83.357050 94.748779 57.707852
v 20.878838 4.795587 -70.918586
v 85.934679 24.058830 72.832369
v -45.871043 71.432671 75.193186
v 92.136344 -83.195646 60.259821
v -52.523695 -60.628317 78.339140
v 86.529838 -37.749938 61.805874
v -98.561324 -88.725456 63.711639
v 94.188328 -91.853744 -59.898022
v -94.626545 -67.712104 75.412155
v 50.966361 -59.392233 -81.126331
v -11.386473 41.109700 -70.808639
v 10.129192 68.121731 -65.333127
v 63.319036 110.823846 -7.295284
v 99.084938 87.620656 16.501829
v 89.303015 -19.597193 -53.910066
v -100.229399 -93.331918 -15.120866
v -76.307948 25.847293 56.143307
v -81.251725 -24.333155 61.669065
v -63.974003 45.685805 -43.241630
v -83.439206 -37.258545 73.854146
v 66.537142 -95.475857 -83.993705
v 26.586949 115.830803 26.948843
v 101.321273 57.780692 36.629769
v -14.145423 -82.230468 -90.516886
v 8.268597 110.924649 -5.987771
v -17.368178 81.058993 -49.841657
v -63.012107 78.861943 57.450830
v -79.545405 -100.923839 78.343544
v 92.515555 -26.417816 -37.656707
v 66.761505 83.324151 76.506210
v -76.737405 53.678372 15.598732
v -29.744920 -32.685762 73.653477
v 77.255616 105.858416 30.202001
v -76.943612 -26.599357 -52.749262
v -67.935535 2.075354 66.594678
v 25.993983 -4.527395 74.279203
v -81.881561 -25.782752 44.174049
v 98.177332 -115.169983 -19.116452
v 97.971436 -102.422233 -42.519058
v 28.035064 68.204615 -62.511538
v -35.536103 -115.635688 -87.026962
v 1.593614 -25.928251 71.617729
v -77.187082 -44.602137 -60.798325
v 96.923227 2.283694 52.127440
v -72.658076 -3.362025 19.108825
v -60.713706 -23.395339 72.919625
v -20.654966 -95.578797 90.372836
v 78.885134 -35.705464 68.364971
v 15.903184 -116.322409 -41.807791
v 92.644502 21.546152 -33.921712
v 87.884698 64.727706 -37.166366
v 69.973947 100.010888 64.103461
v 1.632580 76.532622 81.466650
v 63.031279 -79.429859 82.202545
v -63.865570 -86.365986 -88.348078
v 86.615628 -102.454854 69.795548
v 60.773235 -37.544832 -78.001554
v 92.786383 -103.746067 41.639650
v -75.243792 40.371644 -16.236885
v 58.960971 -32.336939 74.627148
v 89.204455 -114.909077 28.709833
v -73.838686 -22.681927 68.725396
v -77.171774 3.217345 56.406841
v -38.830699 86.791923 -25.215177
v -8.823449 -78.999804 88.603107
v 49.322043 48.618516 -62.621370
v 39.579774 73.787646 -53.485426
v -77.470860 -113.561683 58.357588
v -4.879173 107.901813 31.631671
v -83.344608 -114.892541 -16.259347
v -97.160296 -111.993078 37.021387
v -63.493039 -18.527227 -68.577216
v -101.321273 -109.202874 24.815201
v 16.961020 91.890933 76.547824
v -15.394993 91.679471 76.057835
v -3.862169 103.086450 71.699520
v 94.779951 88.817844 0.083183
v -63.418595 -82.270514 80.622258
v -47.731457 48.827486 76.023510
vt 0.233083 0.178873
vt 0.143670 0.087366
vt 0.571800 0.056992
vt 0.260214 0.166419
vt 0.110440 0.272955
vt 0.067140 0.151317
vt 0.153906 0.053074
vt 0.559957 0.170694
vt 0.287882 0.237685
vt 0.216338 0.241323
vt 0.162852 0.322928
vt 0.050358 0.230594
vt 0.048129 0.185679
vt 0.102545 0.102189
vt 0.618010 0.095472
vt 0.490775 0.236859
vt 0.245804 0.363956
vt 0.302913 0.369866
vt 0.427953 0.239840
vt 0.191507 0.375259
vt 0.112773 0.619292
vt 0.014460 0.220544
vt 0.046351 0.156264
vt 0.645686 0.093596
vt 0.289628 0.402794
vt 0.186081 0.542959
vt 0.127605 0.627924
vt 0.001718 0.195849
vt 0.076285 0.717137
vt 0.346740 0.284709
vt 0.325361 0.353653
vt 0.240511 0.420746
vt 0.347309 0.381735
vt 0.319762 0.415698
vt 0.253578 0.515557
vt 0.377534 0.322455
vt 0.275260 0.443287
vt 0.376154 0.382767
vt 0.273168 0.492705
vt 0.291572 0.464167
vt 0.648418 0.537398
vt 0.631613 0.625477
vt 0.556444 0.574929
vt 0.599905 0.537628
vt 0.681869 0.591643
vt 0.642864 0.682123
vt 0.556615 0.654580
vt 0.588993 0.674804
vt 0.536389 0.550840
vt 0.610846 0.487068
vt 0.725319 0.696171
vt 0.682143 0.763352
vt 0.625982 0.706435
vt 0.744514 0.351921
vt 0.528512 0.619758
vt 0.576296 0.694216
vt 0.406365 0.685028
vt 0.526784 0.466976
vt 0.636290 0.405310
vt 0.722595 0.761827
vt 0.806427 0.575786
vt 0.612203 0.717083
vt 0.446328 0.617801
vt 0.490598 0.548013
vt 0.494017 0.496748
vt 0.562905 0.429031
vt 0.782804 0.723846
vt 0.728749 0.805493
vt 0.635760 0.735244
vt 0.793863 0.654156
vt 0.709334 0.337664
vt 0.759576 0.321362
vt 0.403007 0.619160
vt 0.447567 0.577186
vt 0.777835 0.744889
vt 0.608835 0.948689
vt 0.447736 0.972888
vt 0.679558 0.332109
vt 0.769342 0.239412
vt 0.801503 0.710743
vt 0.751873 0.830381
vt 0.809891 0.250658
vt 0.836430 0.669162
vt 0.641279 0.372471
vt 0.699426 0.299248
vt 0.765724 0.188933
vt 0.769648 0.173147
vt 0.417335 0.827111
vt 0.090641 0.771735
vt 0.174477 0.839366
vt 0.358016 0.770020
vt 0.700781 0.144096
vt 0.530517 0.413065
vt 0.441438 0.440061
vt 0.384952 0.460700
vt 0.418187 0.499369
vt 0.465941 0.335862
vt 0.400764 0.422440
vt 0.375061 0.544592
vt 0.358235 0.501453
vt 0.492213 0.338615
vt 0.516784 0.357420
vt 0.407557 0.566248
vt 0.338633 0.538280
vt 0.378462 0.569318
vt 0.174006 0.610428
vt 0.229314 0.648808
vt 0.341445 0.573175
vt 0.206375 0.685831
vt 0.157960 0.647372
vt 0.359123 0.606045
vt 0.241648 0.700875
vt 0.198304 0.782703
vt 0.155474 0.781181
vt 0.104488 0.706079
vt 0.332559 0.727553
vt 0.276785 0.742620
vt 0.277481 0.802850
vt 0.196566 0.816360
vt 0.384046 0.652306
vt 0.328650 0.762311
vt 0.268855 0.842456
vt 0.567147 0.268877
vt 0.504062 0.288300
vt 0.596585 0.155391
vt 0.571928 0.350554
vt 0.481642 0.292856
vt 0.704251 0.194744
vt 0.580229 0.987319
vt 0.539860 0.998008
vt 0.489098 0.980599
vt 0.860519 0.220742
vt 0.637645 0.921061
vt 0.766774 0.792856
vt 0.429143 0.686505
vt 0.144716 0.001992
vt 0.642264 0.843077
vt 0.569022 0.695691
vt 0.616938 0.741509
vt 0.509591 0.686514
vt 0.359531 0.924472
vt 0.271589 0.883425
vt 0.237470 0.887316
vt 0.474300 0.607275
vt 0.343039 0.803850
vt 0.325675 0.855091
vt 0.367963 0.735451
vt 0.348367 0.774138
vt 0.523182 0.662286
vt 0.035385 0.731919
vt 0.045941 0.705528
vt 0.100766 0.288982
vt 0.178679 0.508153
vt 0.234650 0.465276
vt 0.638207 0.455483
vt 0.725508 0.539793
vt 0.814823 0.289476
vt 0.860487 0.633928
vt 0.326741 0.240393
vt 0.396511 0.280868
vt 0.491509 0.156878
vt 0.175320 0.076065
vt 0.602417 0.045412
vt 0.654078 0.067701
vn 0.097638 -0.054965 0.993703
vn 0.166747 0.018493 0.985826
vn 0.005800 -0.062268 0.998043
vn 0.998484 0.047354 -0.028059
vn 0.998993 0.040125 -0.020057
vn 0.880918 0.046266 -0.471002
vn 0.875831 0.054861 -0.479489
vn -0.991645 0.090281 -0.092139
vn -0.996061 0.083729 -0.029192
vn -0.997026 0.033597 -0.069353
vn -0.992123 0.033234 -0.120781
vn -0.002495 -0.999976 0.006502
vn 0.031533 -0.974412 0.222548
vn -0.019400 -0.993477 0.112375
vn -0.049477 -0.998713 -0.011102
vn 0.844659 0.497706 0.197079
vn 0.716957 0.243417 0.653239
vn 0.963970 -0.038457 0.263216
vn -0.071869 0.815027 -0.574948
vn -0.402088 0.867793 -0.291993
vn -0.124038 0.927904 -0.351579
vn 0.240108 0.157095 -0.957950
vn 0.332209 0.117442 -0.935866
vn 0.042005 0.136612 -0.989734
vn 0.038699 0.138842 -0.989558
vn -0.159349 -0.984077 -0.078742
vn -0.041189 -0.992294 -0.116858
vn 0.011786 0.995381 0.095273
vn -0.219618 0.973580 0.062521
vn -0.054329 -0.012045 0.998450
vn -0.207443 -0.009480 0.978201
vn -0.075532 -0.053925 0.995684
vn -0.836605 0.431550 -0.337426
vn 0.069544 0.159084 -0.984813
vn -0.083130 0.168808 -0.982137
vn 0.992697 -0.109620 0.050371
vn 0.996033 -0.073898 -0.049570
vn 0.999769 -0.005184 -0.020866
vn 0.419076 0.594427 -0.686317
vn 0.684164 0.318436 -0.656138
vn 0.325029 0.367159 -0.871522
vn 0.168854 0.661880 -0.730344
vn 0.131174 0.130116 0.982783
vn -0.001592 0.203118 0.979153
vn -0.040320 0.225832 0.973331
vn 0.074549 0.114168 0.990660
vn -0.957831 0.286577 -0.020833
vn -0.979873 -0.090942 -0.177704
vn -0.999520 -0.004353 0.030665
vn -0.579440 -0.719583 0.382688
vn -0.942860 -0.153565 0.295691
vn -0.597441 -0.742084 0.303933
vn -0.943169 0.118598 -0.310429
vn -0.661037 -0.575418 -0.481585
vn -0.038447 0.186868 -0.981632
vn -0.692320 0.043927 -0.720252
vn 0.997019 0.013916 0.075892
vn 0.998600 0.035691 0.039046
vn 0.056200 -0.998085 0.025849
vn 0.965076 0.025845 0.260691
vn 0.970924 -0.169301 0.169245
vn 0.203063 0.126335 0.970981
vn 0.027867 0.932598 0.359841
vn 0.235722 0.831318 0.503335
vn 0.342139 0.930364 0.131771
vn 0.001247 0.022044 0.999756
vn 0.611685 0.620586 0.490626
vn 0.864569 0.403388 -0.299665
vn -0.044011 0.214712 0.975685
vn -0.080321 0.194195 0.977669
vn -0.958733 0.282598 -0.031134
vn 0.003915 0.221312 -0.975195
vn -0.673558 0.254185 -0.694053
vn -0.389271 0.012439 -0.921039
vn -0.951352 0.234377 -0.199993
vn 0.189570 0.916679 -0.351799
vn 0.562410 0.803309 -0.195934
vn -0.139421 0.085321 0.986551
vn -0.153642 0.085705 0.984403
vn -0.397759 -0.221432 0.890368
vn -0.578366 0.426222 -0.695578
vn -0.321682 0.539560 -0.778072
vn 0.011970 0.385017 -0.922832
vn -0.603681 0.662366 -0.443667
vn 0.379057 -0.077103 0.922155
vn 0.501777 0.016170 0.864846
vn 0.201509 -0.565107 -0.800030
vn 0.522752 -0.727089 -0.445052
vn 0.053902 -0.995295 -0.080517
vn 0.103934 -0.322044 -0.941002
vn -0.991681 0.004393 0.128646
vn -0.952039 0.231920 0.199586
vn -0.871592 0.453022 -0.187343
vn -0.409125 0.341511 0.846160
vn -0.275392 0.917630 0.286558
vn -0.484575 0.722610 0.492972
vn -0.796965 0.438500 0.415409
vn -0.656344 0.753378 -0.040417
vn 0.505200 -0.120760 0.854511
vn -0.309279 -0.326961 -0.892997
vn 0.037713 0.146903 -0.988432
vn -0.681039 0.113975 0.723322
vn -0.572347 0.053626 0.818256
vn -0.082608 0.131638 0.987850
vn -0.497093 0.272442 0.823817
vn -0.212392 0.191780 0.958180
vn -0.187419 0.939846 0.285594
vn 0.071153 0.408082 0.910168
vn 0.231573 0.363278 0.902443
vn 0.112040 0.992180 -0.055005
vn 0.820001 0.189452 -0.540099
vn 0.993231 -0.016716 -0.114944
vn 0.984092 0.166462 -0.062081
vn -0.106056 -0.994115 -0.022062
vn -0.049417 -0.992220 0.114273
vn -0.185290 0.329217 0.925896
vn 0.112068 -0.993681 -0.006299
vn 0.428089 -0.821716 0.376195
vn 0.711557 -0.274291 0.646878
vn 0.767380 -0.028664 0.640551
vn -0.817624 0.265314 0.510979
vn 0.408502 0.021379 -0.912507
vn -0.953915 0.299185 -0.023140
vn -0.994919 0.046065 0.089518
vn -0.954693 0.272099 0.120511
vn -0.022699 0.022609 0.999487
vn -0.753826 0.074047 -0.652889
vn 0.162224 0.592630 -0.788969
s 1
g rock2_low
usemtl initialShadingGroup
f 23/106/1 32/35/2 85/107/3
f 78/1/4 88/2/5 57/162/6 64/4/7
f 43/41/8 94/42/9 80/43/10 108/44/11
f 98/88/12 45/139/13 48/137/14 119/131/15
f 9/25/16 5/32/17 13/20/18
f 75/93/19 26/65/20 74/94/21
f 2/16/22 106/8/23 50/123/24 18/124/25
f 11/77/26 90/141/27 98/88/12 119/131/15
f 71/95/28 74/94/21 26/65/20 118/96/29
f 30/111/30 128/120/31 42/116/32
f 108/44/11 68/50/33 43/41/8
f 50/123/24 59/125/34 36/85/35
f 93/11/36 34/10/37 72/17/38 13/20/18
f 20/36/39 100/160/40 115/127/41 116/97/42
f 109/110/43 17/109/44 114/113/45 21/114/46
f 4/51/47 65/70/48 122/67/49
f 117/134/50 56/60/51 120/75/52
f 12/157/53 28/82/54 11/132/26
f 22/84/55 36/85/35 19/78/56
f 78/1/4 27/5/57 1/6/58 88/2/5
f 98/88/12 110/140/59 45/139/13
f 53/12/60 107/13/61 1/6/58 27/5/57
f 103/115/62 109/110/43 21/114/46 45/89/13
f 15/100/63 101/40/64 82/34/65 71/95/28
f 32/35/2 102/108/66 85/107/3
f 9/25/16 82/34/65 49/37/67 5/32/17
f 100/30/40 20/36/39 126/31/68
f 81/117/69 54/118/70 114/113/45 17/109/44
f 4/51/47 29/45/71 12/61/53
f 116/97/42 75/93/19 74/94/21
f 22/84/55 60/126/72 36/85/35
f 12/157/53 92/72/73 104/79/74
f 29/45/71 83/156/75 12/61/53
f 62/38/76 20/36/39 116/97/42
f 33/33/77 126/31/68 20/36/39 62/38/76
f 21/114/46 48/90/14 45/89/13
f 96/119/78 127/122/79 77/142/80 48/90/14
f 60/126/72 47/59/81 8/66/82 61/102/83
f 8/66/82 68/50/33 113/58/84
f 51/26/85 32/35/2 23/106/1 97/27/86
f 34/10/37 93/11/36 27/5/57 78/1/4
f 6/24/87 40/163/88 24/164/89
f 44/92/90 6/24/87 24/164/89
f 80/43/10 66/47/91 25/55/92 7/49/93
f 52/73/94 39/103/95 31/74/96 76/63/97
f 68/50/33 7/49/93 113/58/84
f 41/64/98 7/49/93 25/55/92 76/144/97
f 97/27/86 109/110/43 103/115/62 46/29/99
f 11/132/26 28/82/54 3/86/100
f 36/85/35 59/125/34 73/128/101
f 38/57/102 84/147/103 42/116/32
f 95/121/104 111/148/105 69/145/106
f 125/99/107 118/96/29 41/64/98 39/103/95
f 15/100/63 123/104/108 79/39/109 101/40/64
f 7/49/93 41/64/98 26/65/20 113/58/84
f 118/96/29 26/65/20 41/64/98
f 13/153/18 5/154/17 79/39/109 32/35/2
f 16/98/110 71/95/28 82/34/65 62/38/76
f 116/97/42 74/94/21 62/38/76
f 2/16/22 64/161/7 106/8/23
f 115/127/41 35/19/111 2/16/22
f 35/19/111 64/161/7 2/16/22
f 72/17/38 34/10/37 99/9/112 63/18/113
f 92/72/73 36/85/35 104/79/74
f 36/85/35 73/128/101 104/79/74
f 37/130/114 119/131/15 48/137/14 10/133/115
f 37/80/114 65/70/48 119/83/15
f 38/149/102 76/144/97 25/55/92 66/47/91
f 124/105/116 52/73/94 30/111/30 102/108/66
f 79/39/109 123/104/108 102/108/66 32/35/2
f 87/135/117 110/140/59 98/88/12 24/91/89
f 31/74/96 39/103/95 41/64/98
f 30/111/30 42/116/32 85/107/3
f 54/118/70 81/117/69 95/121/104 69/145/106
f 47/155/81 83/156/75 43/41/8
f 29/45/71 43/41/8 83/156/75
f 44/92/90 24/164/89 90/87/27
f 104/79/74 73/128/101 3/86/100
f 110/140/59 14/138/118 45/139/13
f 97/27/86 46/29/99 105/151/119 55/21/120
f 105/151/119 46/29/99 45/89/13 14/150/118
f 47/59/81 22/84/55 19/78/56
f 47/59/81 60/126/72 22/84/55
f 79/39/109 5/154/17 49/37/67 101/40/64
f 60/126/72 50/123/24 36/85/35
f 55/21/120 13/153/18 51/26/85 97/27/86
f 32/35/2 51/26/85 13/153/18
f 52/73/94 76/63/97 38/57/102
f 128/120/31 38/57/102 42/116/32
f 55/152/120 105/22/119 53/12/60 27/5/57
f 58/146/121 77/142/80 127/122/79
f 13/20/18 55/152/120 27/5/57 93/11/36
f 4/51/47 122/67/49 56/60/51
f 58/52/121 56/60/51 77/68/80
f 70/15/122 57/3/6 40/163/88
f 64/161/7 57/3/6 106/8/23
f 4/51/47 58/52/121 86/46/123 29/45/71
f 58/52/121 4/51/47 56/60/51
f 59/125/34 70/15/122 73/128/101
f 106/8/23 57/3/6 70/15/122
f 18/124/25 50/123/24 60/126/72 61/102/83
f 9/25/16 63/18/113 33/33/77 82/34/65
f 9/25/16 13/20/18 72/17/38 63/18/113
f 99/9/112 34/10/37 78/1/4 64/4/7
f 12/61/53 11/158/26 65/70/48
f 12/61/53 65/70/48 4/51/47
f 66/47/91 80/43/10 94/42/9 112/48/124
f 84/147/103 111/148/105 95/121/104 42/116/32
f 112/48/124 94/42/9 86/46/123 67/53/125
f 68/50/33 8/66/82 47/155/81
f 68/50/33 47/155/81 43/41/8
f 54/118/70 69/145/106 58/146/121 127/122/79
f 69/69/106 67/53/125 58/52/121
f 44/92/90 70/15/122 6/24/87
f 6/24/87 70/15/122 40/163/88
f 118/96/29 125/99/107 15/100/63 71/95/28
f 73/128/101 70/15/122 44/92/90
f 73/128/101 44/92/90 3/86/100
f 16/98/110 74/94/21 71/95/28
f 62/38/76 74/94/21 16/98/110
f 8/66/82 75/93/19 61/102/83
f 75/93/19 8/66/82 113/58/84
f 41/64/98 76/144/97 31/74/96
f 48/90/14 77/142/80 10/143/115
f 77/68/80 56/60/51 117/134/50
f 7/49/93 68/50/33 108/44/11 80/43/10
f 85/107/3 42/116/32 91/112/126
f 62/38/76 82/34/65 33/33/77
f 83/54/75 47/59/81 121/71/127
f 83/54/75 92/72/73 12/157/53
f 84/56/103 38/149/102 66/47/91 112/48/124
f 84/56/103 112/48/124 67/53/125 111/62/105
f 23/106/1 85/107/3 17/109/44 109/110/43
f 85/107/3 91/112/126 17/109/44
f 67/53/125 86/46/123 58/52/121
f 24/136/89 40/7/88 87/14/117
f 88/2/5 1/6/58 87/14/117
f 40/7/88 57/162/6 88/2/5
f 40/7/88 88/2/5 87/14/117
f 61/102/83 89/101/128 115/127/41 18/124/25
f 89/101/128 61/102/83 75/93/19 116/97/42
f 3/86/100 44/92/90 90/87/27
f 3/86/100 90/87/27 11/132/26
f 91/112/126 81/117/69 17/109/44
f 81/117/69 91/112/126 42/116/32
f 83/54/75 121/71/127 92/72/73
f 121/71/127 36/85/35 92/72/73
f 29/45/71 86/46/123 94/42/9 43/41/8
f 42/116/32 95/121/104 81/117/69
f 96/119/78 48/90/14 21/114/46 114/113/45
f 90/141/27 24/91/89 98/88/12
f 35/159/111 99/9/112 64/4/7
f 35/159/111 63/18/113 99/9/112
f 63/18/113 35/159/111 100/30/40 126/31/68
f 35/19/111 115/127/41 100/160/40
f 101/40/64 49/37/67 82/34/65
f 102/108/66 30/111/30 85/107/3
f 46/29/99 103/115/62 45/89/13
f 28/82/54 104/79/74 3/86/100
f 28/82/54 12/157/53 104/79/74
f 14/28/118 110/23/59 107/13/61 105/22/119
f 59/125/34 106/8/23 70/15/122
f 50/123/24 106/8/23 59/125/34
f 105/22/119 107/13/61 53/12/60
f 97/27/86 23/106/1 109/110/43
f 110/23/59 1/6/58 107/13/61
f 87/14/117 1/6/58 110/23/59
f 111/62/105 67/53/125 69/69/106
f 75/93/19 113/58/84 26/65/20
f 96/119/78 114/113/45 54/118/70 127/122/79
f 18/124/25 115/127/41 2/16/22
f 89/101/128 116/97/42 115/127/41
f 117/76/50 37/130/114 10/133/115
f 77/68/80 117/134/50 10/81/115
f 11/158/26 119/83/15 65/70/48
f 56/60/51 122/67/49 120/75/52
f 120/129/52 37/130/114 117/76/50
f 47/59/81 19/78/56 121/71/127
f 121/71/127 19/78/56 36/85/35
f 122/67/49 65/70/48 37/80/114
f 122/67/49 37/80/114 120/75/52
f 125/99/107 123/104/108 15/100/63
f 125/99/107 102/108/66 123/104/108
f 39/103/95 52/73/94 124/105/116
f 125/99/107 124/105/116 102/108/66
f 39/103/95 124/105/116 125/99/107
f 63/18/113 126/31/68 33/33/77
f 38/57/102 128/120/31 52/73/94
f 52/73/94 128/120/31 30/111/30
