# This file uses centimeters as units for non-parametric coordinates.

mtllib rock3_low.mtl
g default
v 71.255078 -21.270859 -51.007464
v -16.063206 102.905182 22.866357
v -78.663173 -113.230913 -38.674452
v 85.962098 -16.100134 55.245160
v 58.944726 -105.094111 53.290164
v 42.078570 102.844491 35.804434
v -57.871516 12.381872 39.972713
v 89.816646 -99.113700 11.099216
v 65.309760 88.002393 -19.653671
v -2.447524 115.040426 -8.058338
v -68.562612 -68.918243 -78.717884
v -8.413617 66.008817 37.580581
v -56.856952 -43.869444 84.401273
v -82.751924 -115.069454 26.651168
v -47.796545 -79.349992 88.675971
v -39.096994 77.318775 5.946448
v 53.881337 -40.114266 65.117359
v -5.364512 -103.053555 -88.068385
v -31.110276 51.674088 -45.592709
v 46.533198 -110.656469 -51.783388
v -84.847901 -73.151659 4.350444
v -88.905316 -54.365428 57.387912
v 60.482650 94.769035 31.488085
v 74.934698 -8.698709 -22.831796
v 41.871012 84.271438 -40.240545
v -92.837615 -90.263040 72.982563
v 61.877858 -68.721548 -78.867984
v -84.636692 -84.302635 -69.384951
v 3.239321 -64.079476 75.553217
v 33.080353 -92.535762 73.929396
v 71.583045 24.478075 11.023609
v 32.554263 115.883313 19.653065
v 91.060052 -61.053755 19.991902
v 38.800693 107.436660 -29.177912
v -75.071139 -91.655351 89.576045
v -55.432507 -114.293219 66.497922
v -65.275534 -10.885016 17.480712
v 75.475412 -88.270355 -62.898313
v 54.553974 114.594883 -0.334638
v 61.285785 31.662729 51.363852
v 58.100063 -98.953023 -73.921849
v -34.517842 5.053117 54.473149
v -39.994498 3.541156 -59.548100
v 59.262378 35.684189 -50.924588
v 93.503748 -60.967777 57.180641
v -48.760769 -113.324783 -81.207480
v 77.702399 -29.247668 63.437349
v -20.193397 90.113931 -26.000474
v 10.282521 33.220674 45.301612
v -10.167606 -113.096089 -17.390273
v -19.418430 109.705690 1.365411
v -16.935327 -113.360237 41.759567
v -17.395152 -106.404954 70.745442
v -4.390219 -14.993957 60.826125
v 58.192729 89.248590 -33.404378
v 20.274934 98.490273 37.610640
v 70.345475 -107.238934 35.269000
v 6.450658 73.649240 -45.145504
v 9.346899 108.376200 -25.210061
v -52.917326 30.910321 -38.330293
v -69.099368 -30.197675 -57.640436
v -93.939664 -99.365667 30.982514
v -81.526208 -111.724890 56.736269
v 68.227708 34.399918 -19.361428
v -3.797146 -92.582930 79.485377
v -49.267229 -102.125795 87.789354
v 65.122938 91.031131 16.838663
v -33.524396 55.065525 32.419267
v -57.393315 -90.347488 -84.432691
v 36.935011 -99.232005 -86.575083
v -26.040105 103.496421 10.946464
v -80.414524 -33.690827 58.520340
v 88.667789 -29.349218 38.901059
v -88.259198 -95.955769 -55.053050
v 81.850163 -52.400351 64.934024
v 65.175590 -111.083422 -29.046493
v -47.385613 50.970553 -21.352754
v 64.062949 48.131924 -42.274143
v -49.758585 40.825418 10.775277
v 66.992357 54.264605 35.784656
v -38.168441 65.476641 22.156757
v 56.208341 59.728030 46.819440
v -59.302731 4.180792 39.728277
v -28.365101 22.370302 47.983531
v 39.197497 114.142579 -19.591178
v 23.495862 5.328096 53.347303
v -65.711966 -108.524392 76.460986
v -80.595231 -51.031776 71.941165
v -85.709427 -87.506743 84.975509
v -94.129548 -76.728961 64.168070
v 23.752642 -104.942808 65.278264
v -13.723310 -111.735401 -79.149978
v 2.513767 -38.889111 69.443629
v 32.571401 -109.369955 54.839001
v 73.349188 -59.847379 -68.368766
v 66.615323 -29.065014 -63.363118
v 13.240676 7.144452 -58.597518
v 19.592652 -113.342358 -46.744619
v 77.555246 -96.078339 -49.202518
v 72.351111 28.591550 41.671976
v 94.129548 -76.844548 55.508097
v 59.439950 112.964915 -8.733934
v -66.804212 -68.227622 89.528828
v -82.327174 -95.113816 -69.150961
v -52.058640 -115.883313 51.747615
v -42.950173 -57.285893 85.531016
v -61.788995 -2.235905 -47.786705
v -73.980301 -37.946314 4.084576
v 77.614775 -54.996304 -40.155066
v -15.152007 58.827923 -48.769753
v 47.635742 -17.366206 60.305524
v -25.671045 -109.036357 -89.576045
vt 0.082686 0.073647
vt 0.195167 0.104996
vt 0.148011 0.190770
vt 0.035868 0.134017
vt 0.811063 0.271921
vt 0.247929 0.039715
vt 0.204066 0.173252
vt 0.080583 0.254692
vt 0.139135 0.274332
vt 0.010466 0.826449
vt 0.019838 0.032513
vt 0.724568 0.310215
vt 0.271450 0.064269
vt 0.242838 0.111520
vt 0.183930 0.300768
vt 0.021447 0.261339
vt 0.085863 0.600634
vt 0.001840 0.159337
vt 0.845906 0.322281
vt 0.635957 0.299602
vt 0.313411 0.104890
vt 0.230085 0.163143
vt 0.257313 0.287065
vt 0.145703 0.379337
vt 0.173179 0.377695
vt 0.105928 0.508167
vt 0.117244 0.607397
vt 0.099720 0.658329
vt 0.055020 0.773336
vt 0.040336 0.816031
vt 0.875539 0.349243
vt 0.373453 0.060304
vt 0.146037 0.437180
vt 0.126159 0.530095
vt 0.152048 0.456964
vt 0.560775 0.584613
vt 0.659028 0.666674
vt 0.560494 0.735484
vt 0.502700 0.693073
vt 0.656340 0.632199
vt 0.578889 0.807586
vt 0.394028 0.861356
vt 0.442628 0.681441
vt 0.505409 0.565906
vt 0.673279 0.641475
vt 0.508583 0.515639
vt 0.554544 0.189126
vt 0.778817 0.610138
vt 0.681264 0.708955
vt 0.507688 0.839507
vt 0.372656 0.818893
vt 0.340007 0.714007
vt 0.368866 0.606926
vt 0.550237 0.090338
vt 0.838209 0.617876
vt 0.377579 0.940633
vt 0.353846 0.932872
vt 0.361414 0.860324
vt 0.344622 0.729547
vt 0.312982 0.594460
vt 0.442024 0.540564
vt 0.391842 0.541379
vt 0.411202 0.486821
vt 0.310064 0.848852
vt 0.320973 0.895971
vt 0.286988 0.734899
vt 0.322273 0.552977
vt 0.302654 0.623998
vt 0.323029 0.466826
vt 0.882559 0.593786
vt 0.332157 0.939057
vt 0.280770 0.530716
vt 0.278017 0.508675
vt 0.258949 0.543471
vt 0.718995 0.457113
vt 0.674420 0.388950
vt 0.837387 0.559654
vt 0.830346 0.489700
vt 0.600181 0.438731
vt 0.864408 0.570581
vt 0.869861 0.399985
vt 0.888301 0.498774
vt 0.675205 0.335543
vt 0.502069 0.080779
vt 0.889957 0.418732
vt 0.284147 0.960185
vt 0.581864 0.415851
vt 0.921687 0.473681
vt 0.120467 0.911827
vt 0.183708 0.502551
vt 0.258051 0.482423
vt 0.195944 0.434500
vt 0.255558 0.448286
vt 0.195646 0.552372
vt 0.161093 0.534592
vt 0.207900 0.416128
vt 0.354250 0.392814
vt 0.302296 0.393172
vt 0.357518 0.275017
vt 0.202906 0.371371
vt 0.702110 0.595846
vt 0.197709 0.816620
vt 0.115951 0.759048
vt 0.169597 0.720896
vt 0.219460 0.768973
vt 0.188172 0.867279
vt 0.097611 0.802053
vt 0.203681 0.670842
vt 0.280495 0.697497
vt 0.279768 0.870522
vt 0.283259 0.914629
vt 0.248133 0.613584
vt 0.574942 0.456783
vt 0.460271 0.077106
vt 0.320252 0.049094
vt 0.602899 0.335168
vt 0.193781 0.925835
vt 0.920535 0.400514
vt 0.580300 0.867059
vt 0.615758 0.818708
vt 0.582964 0.504993
vt 0.912756 0.565338
vt 0.325310 0.981818
vt 0.912632 0.269264
vt 0.689986 0.269406
vt 0.653835 0.578783
vt 0.120161 0.001992
vt 0.394087 0.910871
vt 0.522371 0.868115
vt 0.390594 0.696876
vt 0.377036 0.687191
vt 0.475321 0.803565
vt 0.437922 0.778856
vt 0.374608 0.998008
vt 0.548072 0.139426
vt 0.648912 0.589270
vt 0.387368 0.398764
vt 0.450812 0.311005
vt 0.746175 0.623159
vt 0.276817 0.172718
vt 0.283852 0.116283
vt 0.229235 0.374477
vt 0.206025 0.280686
vt 0.001944 0.856734
vt 0.010553 0.063874
vt 0.033509 0.319948
vt 0.071052 0.653139
vt 0.081519 0.395742
vt 0.039725 0.742513
vn -0.347539 -0.937504 -0.017424
vn -0.324222 -0.943456 -0.069075
vn 0.023953 -0.999678 0.008379
vn 0.008104 0.241360 -0.970402
vn 0.127347 0.197526 -0.971991
vn 0.005700 0.206792 -0.978368
vn 0.980409 0.090838 -0.174778
vn 0.978108 0.085858 -0.189559
vn 0.974708 0.165561 -0.150111
vn 0.976434 0.175527 -0.125567
vn -0.897930 0.340329 -0.279102
vn -0.984137 -0.101390 -0.145583
vn -0.959712 0.270646 -0.075528
vn -0.951104 0.301210 -0.068369
vn 0.949890 -0.288899 -0.119362
vn 0.739725 -0.337940 0.581897
vn 0.160400 -0.982662 0.092989
vn 0.131733 0.278576 0.951337
vn -0.006181 0.233811 0.972262
vn -0.039772 0.270542 0.961886
vn 0.074176 0.355247 0.931825
vn 0.058540 0.220297 0.973675
vn -0.067827 0.216242 0.973981
vn -0.088922 0.270505 -0.958603
vn -0.153703 0.280293 -0.947529
vn -0.775792 0.216527 -0.592674
vn -0.980319 -0.189229 -0.056279
vn 0.188324 -0.072580 0.979421
vn 0.170242 0.129914 0.976801
vn 0.167417 0.059105 0.984113
vn 0.144651 -0.285730 0.947330
vn 0.955286 -0.185835 -0.229987
vn 0.188681 -0.949651 -0.250126
vn 0.103328 -0.963733 -0.246051
vn 0.187684 -0.525080 -0.830100
vn 0.947056 0.278898 0.159061
vn 0.837110 0.288023 0.465070
vn 0.048191 0.950904 0.305711
vn -0.250314 0.960268 -0.123400
vn -0.544625 0.832714 -0.099853
vn -0.349760 0.686535 0.637446
vn 0.100757 0.962262 -0.252783
vn 0.470831 0.870212 -0.145084
vn -0.156034 0.444066 0.882303
vn -0.237523 0.240608 0.941111
vn -0.407069 0.362880 0.838220
vn -0.913670 0.335737 0.229102
vn -0.170718 0.334710 0.926728
vn -0.136476 0.512051 0.848044
vn -0.694496 0.551932 0.461570
vn -0.112000 0.434728 0.893570
vn -0.271159 0.234889 0.933435
vn 0.197670 0.240305 0.950358
vn 0.062063 -0.993843 0.091780
vn 0.057298 -0.997209 0.047873
vn 0.195590 -0.092523 0.976311
vn 0.084123 -0.894129 0.439837
vn 0.349515 -0.719428 0.600219
vn -0.696048 -0.129288 0.706259
vn -0.547877 -0.812742 0.198193
vn -0.350123 -0.769184 0.534573
vn -0.286674 -0.398668 0.871138
vn 0.131779 -0.907799 0.398164
vn -0.667116 0.369719 0.646733
vn -0.954639 0.296779 0.024209
vn -0.621299 0.564463 -0.543479
vn -0.886918 0.405130 -0.221913
vn -0.876390 0.459969 -0.142721
vn 0.065753 0.174841 0.982399
vn 0.200643 0.181527 0.962700
vn -0.602160 -0.557800 -0.571194
vn -0.097303 -0.984083 -0.148702
vn 0.022698 -0.999679 -0.011218
vn -0.565200 0.464191 -0.681965
vn -0.856156 0.355834 -0.374671
vn -0.000942 0.275932 -0.961177
vn -0.197380 0.658336 -0.726385
vn 0.088007 0.633325 -0.768866
vn 0.078823 0.304972 -0.949094
vn 0.167186 -0.985864 -0.010960
vn -0.849312 0.498977 0.172309
vn -0.956936 0.289065 -0.026734
vn -0.881822 -0.395725 0.256501
vn 0.187382 0.678680 0.710128
vn 0.627268 0.561501 0.539676
vn 0.610852 0.737700 0.287505
vn 0.973378 0.212887 -0.084937
vn 0.985412 0.136953 -0.101029
vn 0.990351 0.104471 -0.091053
vn 0.988655 0.141516 0.050336
vn 0.982878 0.132718 0.127817
vn 0.938895 0.153666 -0.307998
vn 0.861087 0.195630 -0.469316
vn 0.731146 0.216324 -0.647016
vn 0.217458 0.238401 -0.946508
vn -0.977693 0.201647 0.058777
vn -0.665381 0.377498 0.644021
vn 0.522034 -0.564460 -0.639425
vn -0.191527 0.082311 -0.978030
vn 0.324428 0.013771 0.945810
vn 0.059058 0.181715 0.981576
vn 0.956809 0.098064 0.273678
vn 0.745668 0.316005 -0.586618
vn -0.921239 0.326439 -0.211557
vn -0.947607 0.316949 -0.039805
vn 0.891806 0.055510 -0.449000
vn 0.904657 -0.103817 -0.413301
vn -0.097168 0.298536 -0.949439
vn -0.011721 -0.001990 -0.999929
vn 0.031367 -0.998638 0.041693
vn 0.029479 -0.969691 0.242551
vn -0.784148 0.549875 0.287662
s 1
g rock3_low
usemtl initialShadingGroup
f 14/48/1 3/126/2 50/75/3
f 97/99/4 27/21/5 18/114/6
f 33/1/7 109/2/8 24/3/9 73/4/10
f 61/36/11 74/37/12 21/38/13 108/39/14
f 8/5/15 101/124/16 57/19/17
f 93/102/18 111/103/19 86/104/20 54/105/21
f 111/103/19 40/28/22 49/108/23 86/104/20
f 61/36/11 43/46/24 11/136/25 28/40/26
f 14/120/1 62/41/27 74/37/12 3/49/2
f 65/117/28 29/106/29 15/111/30 66/86/31
f 33/1/7 8/127/15 99/6/32 109/2/8
f 20/83/33 92/79/34 70/116/35
f 100/147/36 40/28/22 4/149/37
f 32/90/38 10/91/39 51/73/40 2/74/41
f 85/92/42 10/91/39 32/90/38 102/33/43
f 43/138/24 97/99/4 18/114/6 11/47/25
f 56/94/44 2/74/41 12/112/45
f 68/68/46 7/52/47 84/109/48 12/112/45
f 42/66/49 83/59/50 13/64/51
f 103/65/52 15/111/30 106/110/53 13/64/51
f 94/81/54 52/78/55 50/75/3
f 30/118/56 91/85/57 5/31/58
f 89/57/59 63/134/60 87/123/61 35/71/62
f 52/78/55 94/81/54 91/85/57 53/82/63
f 81/60/64 79/53/65 7/131/47
f 51/73/40 48/69/66 77/62/67 16/67/68
f 30/89/56 17/107/69 29/106/29 65/117/28
f 4/149/37 40/28/22 47/29/70
f 104/45/71 46/139/72 3/49/2 74/37/12
f 50/75/3 3/126/2 46/121/72 98/76/73
f 77/62/67 48/69/66 19/63/74 60/61/75
f 58/98/76 59/93/77 34/96/78 25/142/79
f 76/12/80 99/125/32 8/5/15
f 76/12/80 8/5/15 57/19/17
f 13/64/51 83/59/50 72/51/81
f 22/132/82 108/39/14 21/38/13
f 63/119/60 26/129/83 62/41/27 14/120/1
f 6/95/84 23/34/85 39/35/86 32/90/38
f 31/8/87 73/4/10 24/3/9 64/9/88
f 64/9/88 9/24/89 67/148/90 80/146/91
f 1/7/92 78/15/93 64/9/88 24/3/9
f 96/22/94 44/143/95 78/15/93 1/7/92
f 62/41/27 90/50/96 22/132/82 21/38/13
f 13/64/51 88/58/97 89/57/59 103/65/52
f 96/140/94 27/21/5 44/23/95
f 41/20/98 99/125/32 76/12/80
f 46/139/72 104/45/71 69/101/99
f 106/110/53 15/111/30 29/106/29 93/102/18
f 13/64/51 54/105/21 42/66/49
f 101/144/16 75/30/100 30/89/56
f 5/31/58 101/124/16 30/118/56
f 80/17/91 23/34/85 82/27/101
f 32/90/38 2/74/41 56/94/44 6/95/84
f 45/10/102 4/149/37 47/29/70 75/30/100
f 34/96/78 55/25/103 25/100/79
f 90/128/96 89/57/59 88/58/97 22/42/82
f 89/57/59 26/56/83 63/134/60
f 87/123/61 66/86/31 35/71/62
f 53/82/63 65/88/28 66/122/31
f 107/44/104 37/43/105 7/131/47 79/53/65
f 72/133/81 83/130/50 37/43/105
f 27/21/5 95/141/106 38/13/107 41/115/98
f 102/33/43 55/25/103 34/96/78 85/92/42
f 67/148/90 9/24/89 102/33/43
f 23/34/85 6/95/84 82/27/101
f 12/112/45 82/27/101 56/94/44
f 18/114/6 27/21/5 70/32/35
f 49/108/23 84/109/48 54/105/21 86/104/20
f 97/99/4 43/138/24 110/97/108 58/98/76
f 19/63/74 43/46/24 107/44/104 60/61/75
f 58/98/76 25/142/79 44/23/95 97/99/4
f 44/143/95 25/100/79 55/25/103 78/15/93
f 73/4/10 45/145/102 33/1/7
f 101/11/16 8/127/15 33/1/7
f 92/79/34 98/76/73 46/121/72
f 69/135/99 112/84/109 46/54/72
f 47/29/70 40/28/22 111/103/19 17/107/69
f 17/107/69 30/89/56 75/30/100
f 48/69/66 59/93/77 110/97/108 19/137/74
f 48/69/66 51/73/40 10/91/39 59/93/77
f 12/112/45 49/108/23 40/28/22 82/27/101
f 49/108/23 12/112/45 84/109/48
f 50/75/3 76/12/80 57/19/17 94/81/54
f 68/68/46 81/60/64 7/131/47
f 14/48/1 105/77/110 36/80/111 63/55/60
f 105/77/110 14/48/1 50/75/3 52/78/55
f 36/80/111 53/82/63 66/122/31
f 53/82/63 36/80/111 105/77/110 52/78/55
f 111/103/19 93/102/18 29/106/29 17/107/69
f 9/24/89 55/25/103 102/33/43
f 9/24/89 64/9/88 78/15/93 55/25/103
f 6/95/84 56/94/44 82/27/101
f 57/19/17 101/124/16 5/31/58
f 110/97/108 43/138/24 19/137/74
f 59/93/77 10/91/39 85/92/42 34/96/78
f 60/61/75 107/44/104 79/53/65 77/62/67
f 21/38/13 74/37/12 62/41/27
f 65/88/28 91/85/57 30/118/56
f 35/71/62 66/86/31 15/111/30 103/65/52
f 67/26/90 23/34/85 80/17/91
f 39/35/86 23/34/85 67/26/90 102/33/43
f 2/74/41 81/60/64 68/68/46 12/112/45
f 69/135/99 11/47/25 18/114/6 112/84/109
f 28/40/26 11/136/25 69/101/99 104/45/71
f 70/32/35 27/21/5 41/115/98
f 70/116/35 41/20/98 20/83/33
f 71/72/112 51/73/40 16/67/68
f 2/74/41 51/73/40 71/72/112
f 22/132/82 72/133/81 37/43/105 108/39/14
f 100/16/36 4/18/37 73/4/10
f 73/4/10 4/18/37 45/145/102
f 28/40/26 74/37/12 61/36/11
f 47/29/70 17/107/69 75/30/100
f 76/12/80 50/75/3 98/76/73
f 76/12/80 20/83/33 41/20/98
f 79/53/65 81/60/64 16/67/68
f 79/53/65 16/67/68 77/62/67
f 31/8/87 100/16/36 73/4/10
f 100/16/36 31/8/87 64/9/88 80/146/91
f 2/74/41 71/72/112 81/60/64
f 81/60/64 71/72/112 16/67/68
f 82/27/101 40/28/22 100/147/36 80/17/91
f 7/131/47 37/43/105 83/130/50
f 42/66/49 7/52/47 83/59/50
f 42/66/49 84/109/48 7/52/47
f 54/105/21 84/109/48 42/66/49
f 36/80/111 66/122/31 87/70/61
f 87/70/61 63/55/60 36/80/111
f 88/58/97 13/64/51 72/51/81
f 88/58/97 72/51/81 22/42/82
f 26/56/83 89/57/59 90/128/96
f 90/50/96 62/41/27 26/129/83
f 91/85/57 65/88/28 53/82/63
f 70/116/35 92/79/34 18/87/6
f 46/121/72 112/113/109 92/79/34
f 93/102/18 54/105/21 13/64/51 106/110/53
f 94/81/54 57/19/17 5/31/58 91/85/57
f 95/141/106 27/21/5 96/140/94
f 1/7/92 24/3/9 109/2/8
f 96/22/94 1/7/92 95/14/106
f 97/99/4 44/23/95 27/21/5
f 20/83/33 76/12/80 98/76/73
f 92/79/34 20/83/33 98/76/73
f 109/2/8 99/6/32 38/13/107 95/14/106
f 41/115/98 38/13/107 99/6/32
f 45/10/102 75/30/100 101/144/16
f 33/1/7 45/145/102 101/11/16
f 39/35/86 102/33/43 32/90/38
f 35/71/62 103/65/52 89/57/59
f 74/37/12 28/40/26 104/45/71
f 37/43/105 107/44/104 61/36/11 108/39/14
f 1/7/92 109/2/8 95/14/106
f 110/97/108 59/93/77 58/98/76
f 112/113/109 18/87/6 92/79/34
f 107/44/104 43/46/24 61/36/11
