# This file uses centimeters as units for non-parametric coordinates.

mtllib rock4_low.mtl
g default
v -61.179116 -44.851885 121.020769
v 84.546289 -11.137558 101.825919
v 103.318509 -57.079190 22.618242
v 42.091930 -56.645410 112.209272
v -77.522203 -49.579600 -110.026506
v 56.368379 28.160661 -94.096497
v -31.777291 37.638756 81.970036
v -113.591513 16.135526 -18.102608
v 47.386448 53.401706 -14.343859
v 120.364467 -18.695474 -4.699324
v -126.006795 -16.139236 -15.358143
v 100.132001 -48.693180 -61.687700
v -17.630526 -52.876595 -125.419445
v -7.986718 37.965967 -30.069710
v 122.933991 16.663097 -39.835363
v -114.654883 -48.281315 32.940615
v 67.394583 37.038061 106.708809
v 99.718556 39.467851 14.556245
v -70.814345 -23.666037 -125.949681
v -57.773124 32.079051 122.465388
v -76.561781 5.516955 -122.533554
v -26.359196 -9.046256 127.928981
v 5.095531 9.297570 -124.406837
v 93.436258 5.592463 -77.649333
v -107.843291 5.925235 -96.350800
v -9.330052 -58.996751 -65.778686
v 13.362638 50.812898 75.975913
v 111.722766 -49.581712 12.663797
v -91.881904 28.319156 81.752516
v 85.008049 -54.902507 -56.417827
v 97.979999 12.397007 85.805593
v -66.030768 7.060003 127.958075
v 94.964072 23.368402 -67.485350
v -20.978266 19.883086 -116.247474
v -115.332100 12.795558 -60.898801
v -71.566513 14.518536 -62.152259
v 47.455456 13.388818 130.880647
v -83.847707 -48.940064 18.772598
v -106.253000 -46.976791 -78.768400
v -105.992291 -44.303992 56.323212
v -121.702332 10.362328 24.461504
v 92.458956 45.959736 -3.208296
v -108.600895 -18.009580 -100.239263
v 0.359565 -54.620006 61.078600
v 25.782520 45.487522 103.799301
v 53.608692 41.172834 -45.652659
v -39.350842 19.433814 -80.661223
v -100.001466 15.573102 85.714498
v -125.411308 1.193304 -54.958677
v 118.667038 25.586365 -7.564759
v 19.757429 53.243754 -5.599274
v 107.668453 -7.038239 64.624705
v -34.937407 32.055759 122.626637
v -97.418730 23.891905 32.211840
v 65.884942 -52.046078 110.169206
v 55.124539 -45.890640 123.255164
v -50.482319 -51.819373 119.139144
v 81.340970 35.010929 -61.207792
v 101.039574 -48.326747 -26.721233
v -120.893385 -42.799491 -36.265039
v -51.307507 -52.143197 10.631387
v 36.399896 38.943470 127.223473
v 116.224496 32.199795 -29.656339
v -128.457932 -20.946020 32.316386
v 50.362099 -38.107861 -95.693418
v 19.738650 -48.703437 -116.952131
v 0.022528 -59.953588 -112.085965
v 123.238873 5.029397 21.897383
v 22.125019 23.996768 -109.140324
v 40.777346 -57.621795 -28.446835
v -128.502366 -0.866707 19.084186
v -120.977735 9.040094 -23.773611
v -107.452063 -38.555982 -95.515559
v 75.969879 -58.501060 36.624762
v 78.920334 -51.010925 86.778842
v 22.906870 29.905544 -80.720188
v 94.032662 -58.867534 47.556734
v -49.099234 -50.044667 60.746913
v 104.538838 -33.547502 -60.831569
v -49.981267 17.314442 129.849031
v 36.486636 -56.593928 65.715854
v 69.674582 -6.076495 120.961993
v -29.711946 -57.752093 -118.125333
v -46.500813 27.610413 1.770549
v -66.019111 33.230200 90.731017
v -87.061130 17.133505 -15.433736
v 54.526170 -20.521188 127.965188
v 84.903414 35.888757 88.509982
v 85.088469 22.946860 104.936558
v 26.454007 6.468622 -119.585269
v 43.033851 59.953588 39.346542
v -3.359659 48.592373 54.929367
v 8.732731 -3.499206 128.876707
v -12.616593 42.390162 11.117130
v -71.978992 19.795070 123.795526
v -5.733062 36.211209 123.416036
v -42.511187 5.917433 -131.666804
v -120.681268 -20.224001 47.861874
v -39.958837 13.700392 -126.803823
v 37.018943 -52.156983 -102.838511
v -107.105857 15.559923 49.968075
v -120.179135 -6.717300 -76.736242
v 36.105051 -57.093025 -83.843777
v -31.658429 -52.663528 112.284354
v 49.658654 -50.881839 -87.622694
v -82.819144 -47.536284 -56.397730
v 5.264753 -47.751381 120.933424
v 65.768585 58.348208 26.954198
v 67.996439 54.046721 -1.124728
v -128.455051 -40.101487 29.372442
v 127.851181 6.260360 -6.413564
v 109.098821 4.187575 -63.046996
v 85.434101 43.379007 54.009850
v -31.022470 -57.179379 -45.912669
v -49.248384 -40.477465 -130.720511
v -64.611665 -43.482520 -126.285629
v -43.018167 36.324954 60.548720
v -117.769026 19.141621 9.877660
v 66.459079 -29.886432 119.758977
v -99.828314 -47.887696 46.607011
v 23.552014 39.784434 -45.474154
v -111.519129 6.263945 59.818551
v 54.794984 47.654232 76.752467
v -36.762244 -42.688685 122.236850
v -59.623404 18.893436 -40.079345
v 120.026432 -42.475839 29.466976
v -54.926108 17.050167 -109.199796
v 83.165398 36.830511 79.280144
v 102.707992 14.050621 66.663494
v -119.495991 8.774943 -67.415703
v -79.055191 14.634521 -91.417591
v 91.152215 38.460580 -39.331089
v 33.340567 20.464170 131.666804
v 9.471720 52.714786 10.847890
v -107.625542 13.099781 -80.446364
v 128.502366 -9.200662 20.048677
v -96.074578 6.836221 -109.642220
v -0.633470 -56.010000 18.651671
v -57.405209 -3.664524 -130.435047
v -14.400697 22.301565 -91.203852
v 30.423905 59.177841 33.959325
v -121.384811 -48.093739 7.634948
vt 0.468065 0.135995
vt 0.123381 0.108889
vt 0.106055 0.058731
vt 0.118731 0.032770
vt 0.470180 0.215838
vt 0.124711 0.167516
vt 0.092454 0.096199
vt 0.197295 0.301289
vt 0.161285 0.011003
vt 0.479095 0.187682
vt 0.120482 0.188070
vt 0.102485 0.149471
vt 0.200191 0.290835
vt 0.182779 0.240511
vt 0.166173 0.209286
vt 0.223086 0.330047
vt 0.135382 0.991087
vt 0.478088 0.083006
vt 0.490902 0.216329
vt 0.148153 0.211718
vt 0.086778 0.155664
vt 0.218015 0.309443
vt 0.102268 0.976620
vt 0.133498 0.934667
vt 0.156756 0.923868
vt 0.571016 0.312507
vt 0.084898 0.200671
vt 0.180176 0.173691
vt 0.071572 0.188958
vt 0.504793 0.039949
vt 0.068248 0.297284
vt 0.068653 0.232750
vt 0.049650 0.230619
vt 0.055890 0.287183
vt 0.035304 0.296826
vt 0.046150 0.605179
vt 0.046279 0.544498
vt 0.085713 0.591418
vt 0.027275 0.602023
vt 0.413958 0.034441
vt 0.057134 0.492394
vt 0.107451 0.509617
vt 0.098848 0.609993
vt 0.062135 0.634439
vt 0.419617 0.106177
vt 0.384986 0.068166
vt 0.024779 0.513795
vt 0.031137 0.639055
vt 0.003641 0.645819
vt 0.084139 0.464759
vt 0.723654 0.275580
vt 0.747093 0.192189
vt 0.112964 0.596768
vt 0.105926 0.660190
vt 0.088271 0.699873
vt 0.416236 0.130349
vt 0.371465 0.108545
vt 0.373372 0.038632
vt 0.015448 0.483300
vt 0.055409 0.462781
vt 0.025385 0.681368
vt 0.457681 0.150598
vt 0.075712 0.445799
vt 0.106357 0.453719
vt 0.105505 0.699948
vt 0.045791 0.709540
vt 0.370264 0.027784
vt 0.037345 0.430281
vt 0.298218 0.003765
vt 0.025527 0.730083
vt 0.429481 0.202854
vt 0.125047 0.700810
vt 0.049692 0.734712
vt 0.343026 0.014910
vt 0.073561 0.824710
vt 0.117361 0.772007
vt 0.034008 0.787204
vt 0.619842 0.003904
vt 0.139495 0.786146
vt 0.664073 0.033742
vt 0.251760 0.186795
vt 0.288688 0.159079
vt 0.312273 0.204460
vt 0.254818 0.241824
vt 0.231895 0.115979
vt 0.315705 0.148419
vt 0.334412 0.162193
vt 0.296662 0.279512
vt 0.250795 0.272839
vt 0.212108 0.225664
vt 0.281569 0.104807
vt 0.329627 0.114394
vt 0.355590 0.208540
vt 0.368961 0.160835
vt 0.330429 0.280586
vt 0.291087 0.319324
vt 0.255411 0.309755
vt 0.192783 0.091018
vt 0.236020 0.086105
vt 0.292484 0.074070
vt 0.341304 0.103767
vt 0.390504 0.195843
vt 0.369642 0.251302
vt 0.333462 0.312664
vt 0.030163 0.326521
vt 0.295105 0.036776
vt 0.249183 0.026640
vt 0.386385 0.137984
vt 0.431145 0.172630
vt 0.049093 0.831357
vt 0.081208 0.905296
vt 0.270774 0.347063
vt 0.340053 0.055607
vt 0.076409 0.850548
vt 0.092700 0.905711
vt 0.626213 0.175052
vt 0.562977 0.176417
vt 0.575716 0.104201
vt 0.597199 0.075550
vt 0.575459 0.236028
vt 0.635530 0.226522
vt 0.510779 0.103915
vt 0.525352 0.193296
vt 0.560113 0.018823
vt 0.596490 0.019022
vt 0.666350 0.109300
vt 0.722891 0.182097
vt 0.511001 0.230229
vt 0.680287 0.225207
vt 0.605890 0.295474
vt 0.584937 0.305623
vt 0.571730 0.004808
vt 0.647640 0.042903
vt 0.694759 0.280755
vt 0.601636 0.314387
vt 0.528480 0.002349
vt 0.120477 0.392676
vt 0.031293 0.412436
vt 0.064848 0.387427
vt 0.079032 0.346611
vt 0.052815 0.312672
vt 0.106922 0.921625
vt 0.019565 0.538158
vt 0.400040 0.013163
vt 0.180206 0.292070
vt 0.098243 0.040746
vt 0.315585 0.334233
vt 0.099430 0.948001
vt 0.215084 0.040351
vt 0.018969 0.361205
vt 0.368787 0.001992
vt 0.075897 0.136866
vt 0.174285 0.252294
vt 0.414182 0.252828
vt 0.380636 0.285451
vt 0.001503 0.677571
vt 0.455843 0.121077
vt 0.004955 0.740757
vt 0.053631 0.168521
vt 0.188822 0.050689
vt 0.007326 0.413297
vt 0.063742 0.883864
vt 0.166185 0.112852
vt 0.461417 0.075466
vt 0.652309 0.301564
vt 0.123033 0.340176
vt 0.512765 0.014978
vt 0.149749 0.904095
vt 0.148314 0.166922
vt 0.504748 0.243819
vt 0.130344 0.309287
vt 0.644044 0.018778
vt 0.134155 0.761139
vt 0.114958 0.562453
vt 0.753237 0.159419
vt 0.111591 0.476269
vt 0.736036 0.244549
vt 0.141312 0.814857
vt 0.157044 0.860979
vt 0.713255 0.296941
vt 0.468066 0.062834
vt 0.158572 0.085892
vt 0.713809 0.066040
vt 0.106525 0.003076
vt 0.106415 0.998008
vt 0.242873 0.339485
vt 0.161395 0.989282
vt 0.136516 0.002898
vn -0.252448 0.958280 -0.134050
vn -0.356881 0.928698 -0.100779
vn -0.264018 0.945994 -0.188122
vn -0.230975 0.966218 -0.114338
vn -0.079294 0.050494 0.995572
vn -0.056192 0.035896 0.997774
vn 0.180747 -0.142894 0.973094
vn 0.307095 0.113614 0.944873
vn 0.815153 -0.200128 0.543576
vn 0.681087 -0.572416 0.456575
vn 0.900444 -0.338498 0.273167
vn 0.860977 -0.146150 0.487195
vn -0.046822 -0.998445 0.030254
vn -0.105971 -0.994032 0.025883
vn -0.119149 -0.992558 0.025135
vn -0.025825 -0.999546 0.015497
vn 0.010537 -0.999943 -0.001573
vn 0.017159 -0.999800 0.010244
vn 0.445096 0.894326 -0.045497
vn 0.622811 0.758669 -0.191124
vn 0.231979 0.938158 -0.256992
vn 0.146580 0.966555 -0.210441
vn 0.414378 -0.042181 -0.909127
vn 0.530187 -0.218882 -0.819141
vn 0.337585 -0.240920 -0.909942
vn -0.940182 -0.313563 -0.133175
vn -0.996039 0.006426 -0.088687
vn -0.993829 0.049936 -0.099042
vn -0.959943 -0.076295 -0.269609
vn -0.403083 0.911343 0.083538
vn -0.233178 0.969145 -0.079910
vn -0.691383 0.708660 0.140676
vn -0.836890 0.142983 0.528367
vn -0.027578 -0.067505 0.997338
vn -0.567539 -0.280918 0.773941
vn -0.019810 -0.207376 0.978061
vn -0.104941 0.986677 -0.124324
vn -0.216801 0.974938 -0.049931
vn -0.490395 -0.095515 -0.866250
vn -0.546198 0.378972 -0.747026
vn -0.398048 0.515731 -0.758669
vn -0.288241 0.112543 -0.950921
vn -0.046634 0.972134 0.229739
vn -0.188549 0.968870 0.160435
vn -0.183447 0.975127 0.124396
vn -0.162871 0.644142 0.747365
vn 0.854373 0.420227 0.305706
vn 0.854545 0.438938 0.277643
vn 0.675627 0.715532 0.177601
vn 0.651829 0.724458 0.224233
vn 0.990912 -0.074077 0.112274
vn 0.554352 -0.089030 -0.827507
vn 0.654269 -0.371047 -0.658981
vn -0.103723 -0.994606 -0.000709
vn -0.075385 -0.997131 0.006913
vn -0.142571 -0.989586 -0.019806
vn -0.183288 -0.981085 -0.062273
vn -0.649149 -0.137019 0.748219
vn -0.839992 -0.094398 0.534325
vn 0.125934 -0.982470 -0.137451
vn 0.118358 -0.992592 -0.027416
vn 0.818110 -0.558069 -0.138764
vn 0.923374 -0.331081 -0.194332
vn 0.842723 -0.494024 -0.213912
vn -0.699948 -0.063366 -0.711378
vn -0.747269 0.202031 -0.633066
vn -0.129428 0.951920 -0.277664
vn -0.192963 0.954785 -0.226167
vn 0.007581 0.964251 -0.264881
vn 0.084105 0.054337 -0.994974
vn 0.183453 0.057472 -0.981347
vn 0.162610 -0.167652 -0.972343
vn 0.048904 -0.159019 -0.986064
vn 0.933026 0.102974 -0.344760
vn 0.990684 -0.045365 -0.128404
vn 0.879263 -0.283004 -0.383152
vn 0.876712 -0.108953 -0.468513
vn 0.791793 0.598280 0.122983
vn -0.977417 -0.206354 0.045549
vn -0.995386 0.028272 0.091690
vn -0.907588 0.298315 0.295453
vn 0.667191 0.716324 0.204295
vn 0.215351 0.943597 0.251494
vn 0.612769 0.071298 0.787039
vn 0.035722 0.955556 -0.292638
vn 0.261484 0.963136 0.063208
vn 0.061317 0.990885 0.119946
vn -0.400337 -0.397263 -0.825780
vn -0.145832 -0.984015 -0.102212
vn -0.212997 -0.974229 -0.074226
vn -0.160777 0.986966 0.006976
vn 0.006731 0.924541 -0.381023
vn -0.068692 0.968349 -0.239960
vn -0.145555 0.975119 -0.167205
vn -0.078364 0.969876 -0.230652
vn -0.162707 0.974123 -0.156880
vn -0.120371 0.991552 -0.048318
vn -0.148806 0.986409 -0.069666
vn -0.193119 0.974007 -0.118388
vn 0.151903 0.518255 0.841628
vn -0.748588 0.152803 0.645188
vn 0.275926 0.745315 -0.606935
vn 0.567262 0.599223 -0.564930
vn -0.822149 0.454760 -0.342438
vn 0.086883 -0.994899 -0.051264
vn -0.302922 0.952796 0.020463
vn -0.331406 0.940589 -0.073903
vn 0.368045 -0.899813 0.234265
vn -0.336898 0.803045 0.491547
vn 0.347671 -0.793515 -0.499459
vn 0.682607 0.196231 0.703947
vn -0.057822 0.672248 0.738065
vn 0.019697 0.153668 0.987926
vn -0.125748 0.769381 -0.626292
vn -0.208052 0.975724 -0.068387
vn -0.148467 0.982253 -0.114614
vn -0.898598 0.436304 -0.046492
vn -0.119918 -0.988219 0.095095
vn -0.697272 -0.535986 0.475952
vn -0.088657 -0.995298 0.039022
vn -0.069305 -0.997582 0.005253
vn -0.063081 -0.997902 0.014555
vn -0.067143 -0.996344 0.052822
vn -0.759712 -0.343468 -0.552147
vn -0.328370 -0.929519 0.167833
vn -0.971628 0.226744 0.067274
vn -0.736874 0.674751 -0.041568
vn -0.002906 -0.988642 0.150262
vn -0.016289 -0.999543 0.025460
vn 0.387484 -0.875238 0.289509
vn 0.298728 0.885846 0.355019
vn 0.309374 0.876238 -0.369451
vn -0.139894 0.990036 0.016052
vn 0.885790 0.149590 0.439317
vn -0.754721 0.593312 0.279958
vn 0.181148 -0.388239 0.903579
vn 0.741096 -0.232436 0.629881
vn -0.004532 -0.416799 0.908987
vn 0.402044 -0.799962 -0.445446
vn 0.057675 -0.983573 -0.171048
vn 0.442602 0.860813 0.251205
vn -0.165994 0.982768 -0.081324
s 1
g rock4_low
usemtl initialShadingGroup
f 84/81/1 94/82/2 14/83/3 125/84/4
f 133/138/5 93/139/6 87/63/7 37/68/8
f 2/41/9 75/42/10 126/38/11 52/37/12
f 138/116/13 61/117/14 114/118/15 26/119/16
f 70/126/17 74/127/18 138/116/13 26/119/16
f 42/56/19 63/62/20 132/109/21 109/108/22
f 90/75/23 65/76/24 66/178/25
f 60/182/26 11/2/27 49/3/28 102/4/29
f 29/33/30 54/159/31 101/29/32 48/32/33
f 87/63/7 22/140/34 1/171/35 124/166/36
f 86/90/37 54/28/31 117/85/38 84/81/1
f 19/24/39 137/23/40 21/148/41 139/142/42
f 45/106/43 27/100/44 7/99/45 96/107/46
f 129/40/47 68/164/48 18/45/49 113/46/50
f 136/36/51 52/37/12 126/38/11
f 90/75/23 24/73/52 12/65/53 65/76/24
f 106/122/54 38/123/55 142/10/56 39/18/57
f 1/171/35 32/31/58 98/11/59
f 70/126/17 30/183/60 3/175/61 74/127/18
f 59/54/62 10/44/63 28/43/64
f 106/122/54 114/118/15 61/117/14 38/123/55
f 137/23/40 19/24/39 43/17/65 25/185/66
f 121/93/67 14/83/3 51/87/68 9/94/69
f 97/115/70 23/114/71 13/179/72 115/168/73
f 15/61/74 111/48/75 79/55/76 112/66/77
f 18/45/49 68/164/48 50/157/78
f 11/2/27 60/182/26 110/169/79 64/6/80
f 122/27/81 98/11/59 48/32/33
f 128/58/82 113/46/50 123/113/83
f 37/68/8 87/63/7 82/60/84
f 9/94/69 109/108/22 132/109/21 46/102/85
f 123/113/83 108/57/86 91/101/87 45/106/43
f 116/167/88 83/124/89 5/30/90
f 117/85/38 54/28/31 29/163/30 85/98/91
f 69/155/92 34/104/93 140/95/94 76/103/95
f 127/96/96 131/97/97 36/89/98 47/88/99
f 96/150/46 93/139/6 133/138/5 62/161/100
f 95/34/101 48/32/33 98/11/59 32/31/58
f 34/162/93 69/110/92 23/114/71
f 6/77/102 24/73/52 90/75/23
f 15/61/74 112/66/77 33/70/103
f 25/184/66 43/188/65 102/4/29 130/146/104
f 137/186/40 131/97/97 127/96/96
f 26/119/16 103/133/105 30/183/60 70/126/17
f 5/30/90 83/124/89 114/118/15 106/122/54
f 9/94/69 91/101/87 108/57/86 109/108/22
f 94/82/2 117/85/38 92/91/106 134/86/107
f 3/53/61 59/54/62 28/43/64
f 77/174/108 126/38/11 75/42/10
f 20/160/109 85/98/91 29/163/30
f 95/34/101 20/35/109 29/33/30 48/32/33
f 30/183/60 103/133/105 105/80/110
f 79/55/76 10/44/63 59/54/62 12/65/53
f 37/68/8 82/60/84 89/59/111 62/161/100
f 32/31/58 1/171/35 22/140/34
f 22/140/34 53/105/112 80/141/113
f 33/70/103 24/73/52 6/77/102
f 99/111/114 34/162/93 23/114/71
f 137/186/40 127/96/96 99/147/114 21/112/41
f 86/90/37 35/13/115 8/14/116 54/28/31
f 72/7/117 49/3/28 11/2/27
f 57/131/118 40/170/119 120/128/120
f 78/120/121 44/121/122 104/130/123 57/131/118
f 5/30/90 73/181/124 116/167/88
f 40/170/119 16/19/125 120/128/120
f 142/10/56 110/5/79 60/1/26
f 72/7/117 11/2/27 71/12/126 118/152/127
f 64/6/80 71/12/126 11/2/27
f 42/56/19 18/45/49 50/157/78 63/62/20
f 108/57/86 123/113/83 113/46/50
f 73/181/124 5/30/90 39/18/57
f 60/182/26 102/4/29 73/9/124
f 4/134/128 104/130/123 44/121/122 81/129/129
f 81/129/129 74/127/18 55/51/130 4/134/128
f 62/69/100 89/151/111 17/74/131
f 6/154/102 46/102/85 58/71/132
f 125/84/4 14/83/3 47/88/99 36/89/98
f 14/83/3 121/93/67 140/95/94 47/88/99
f 35/13/115 49/145/28 72/153/117 8/14/116
f 111/48/75 15/61/74 63/156/20 50/49/78
f 63/156/20 15/61/74 33/70/103 58/158/132
f 9/94/69 51/87/68 141/92/133 91/101/87
f 31/47/134 2/41/9 52/37/12 129/143/47
f 68/39/48 129/143/47 52/37/12 136/36/51
f 53/105/112 20/35/109 80/141/113
f 85/98/91 20/160/109 53/149/112
f 54/159/31 118/152/127 41/21/135 101/29/32
f 56/180/136 104/130/123 4/134/128
f 55/51/130 56/180/136 4/134/128
f 75/42/10 2/41/9 119/50/137 55/176/130
f 57/131/118 1/26/35 40/170/119
f 107/165/138 104/130/123 56/180/136
f 33/70/103 6/77/102 58/158/132
f 59/54/62 3/53/61 30/72/60
f 59/54/62 30/72/60 12/65/53
f 60/1/26 73/181/124 39/18/57
f 142/10/56 60/1/26 39/18/57
f 78/120/121 61/117/14 138/116/13 44/121/122
f 45/106/43 62/69/100 17/74/131
f 96/107/46 62/69/100 45/106/43
f 40/20/119 1/171/35 98/11/59
f 12/65/53 30/72/60 105/173/110 65/76/24
f 66/78/25 100/172/139 67/125/140 13/132/72
f 90/75/23 66/178/25 13/179/72 23/114/71
f 13/132/72 83/124/89 116/167/88 115/136/73
f 79/55/76 111/48/75 136/36/51 10/44/63
f 69/155/92 76/103/95 6/154/102
f 69/110/92 6/77/102 90/75/23
f 98/11/59 41/21/135 71/12/126 64/6/80
f 41/21/135 118/152/127 71/12/126
f 116/25/88 73/187/124 43/17/65 19/24/39
f 73/9/124 102/4/29 43/188/65
f 74/127/18 77/52/108 75/177/10 55/51/130
f 46/102/85 6/154/102 76/103/95 121/93/67
f 9/94/69 46/102/85 121/93/67
f 126/38/11 77/174/108 3/53/61
f 74/127/18 3/175/61 77/52/108
f 39/18/57 5/30/90 106/122/54
f 78/120/121 57/131/118 120/128/120
f 38/123/55 61/117/14 78/120/121 120/128/120
f 79/55/76 12/65/53 24/73/52 112/66/77
f 80/141/113 20/35/109 95/34/101 32/31/58
f 32/31/58 22/140/34 80/141/113
f 138/116/13 74/127/18 81/129/129 44/121/122
f 89/59/111 82/60/84 2/41/9 31/47/134
f 119/50/137 2/41/9 82/60/84 87/63/7
f 67/125/140 83/124/89 13/132/72
f 114/118/15 83/124/89 67/125/140 26/119/16
f 92/91/106 117/85/38 7/99/45 27/100/44
f 85/98/91 53/149/112 7/99/45 117/85/38
f 36/89/98 35/13/115 86/90/37 125/84/4
f 84/81/1 125/84/4 86/90/37
f 87/63/7 107/137/138 56/64/136
f 17/74/131 89/151/111 88/67/141
f 129/40/47 113/46/50 128/58/82 31/144/134
f 89/151/111 31/144/134 88/67/141
f 69/110/92 90/75/23 23/114/71
f 27/100/44 45/106/43 91/101/87 141/92/133
f 92/91/106 27/100/44 141/92/133 134/86/107
f 22/140/34 93/139/6 96/150/46 53/105/112
f 22/140/34 87/63/7 93/139/6
f 14/83/3 94/82/2 134/86/107 51/87/68
f 53/149/112 96/107/46 7/99/45
f 110/169/79 98/11/59 64/6/80
f 99/111/114 23/114/71 97/115/70
f 21/148/41 99/111/114 97/115/70 139/142/42
f 66/178/25 65/76/24 100/79/139
f 41/21/135 98/11/59 122/27/81
f 49/3/28 130/146/104 102/4/29
f 103/133/105 26/119/16 67/125/140
f 103/133/105 67/125/140 100/172/139 105/80/110
f 57/131/118 104/130/123 124/135/36
f 65/76/24 105/173/110 100/79/139
f 124/135/36 1/26/35 57/131/118
f 42/56/19 108/57/86 113/46/50 18/45/49
f 108/57/86 42/56/19 109/108/22
f 98/11/59 110/169/79 40/20/119
f 40/170/119 110/5/79 16/19/125
f 68/39/48 136/36/51 111/48/75 50/49/78
f 112/66/77 24/73/52 33/70/103
f 19/24/39 139/142/42 115/168/73 116/25/88
f 94/82/2 84/81/1 117/85/38
f 8/14/116 118/15/127 54/28/31
f 118/15/127 8/14/116 72/153/117
f 119/50/137 87/63/7 56/64/136 55/176/130
f 38/123/55 120/128/120 142/10/56
f 76/103/95 140/95/94 121/93/67
f 101/29/32 41/21/135 122/27/81
f 48/32/33 101/29/32 122/27/81
f 17/74/131 88/67/141 123/113/83 45/106/43
f 107/165/138 124/135/36 104/130/123
f 124/166/36 107/137/138 87/63/7
f 136/36/51 126/38/11 28/43/64 10/44/63
f 3/53/61 28/43/64 126/38/11
f 34/104/93 127/96/96 47/88/99 140/95/94
f 127/96/96 34/104/93 99/147/114
f 88/67/141 31/144/134 128/58/82
f 128/58/82 123/113/83 88/67/141
f 49/145/28 35/13/115 130/8/104
f 25/16/66 130/8/104 35/13/115 135/22/142
f 135/22/142 35/13/115 36/89/98 131/97/97
f 132/109/21 63/62/20 58/71/132
f 132/109/21 58/71/132 46/102/85
f 62/161/100 133/138/5 37/68/8
f 134/86/107 141/92/133 51/87/68
f 137/186/40 135/22/142 131/97/97
f 135/22/142 137/186/40 25/16/66
f 139/142/42 97/115/70 115/168/73
f 16/19/125 110/5/79 142/10/56
f 16/19/125 142/10/56 120/128/120
