# This file uses centimeters as units for non-parametric coordinates.

mtllib boat.mtl
g default
v -8.231387 -12.085598 8.231387
v -20.339537 5.468675 20.339537
v 20.339537 5.468675 -20.339537
v 8.231387 -12.085598 -8.231387
v 12.039355 -12.085598 32.158906
v 32.158906 -12.085598 12.039355
v -26.292352 11.762215 -26.255399
v -27.048309 11.562735 -23.833886
v -23.972205 11.581818 -27.069315
v -14.686028 -12.085598 -10.143045
v -14.207064 -12.085598 -12.762018
v -11.772019 -12.085598 -13.535559
v -25.727278 11.394595 -23.751029
v -25.257288 11.518615 -25.256528
v -23.865715 11.410417 -25.744698
v -19.179253 5.593811 19.275155
v 19.275155 5.593811 -19.179253
v -24.784758 8.872982 -23.951462
v -24.585248 8.927458 -24.617895
v -24.050658 8.887299 -24.805208
v -18.606097 3.397096 17.795795
v 17.795803 3.397088 -18.606107
vt 0.375000 0.000000
vt 0.875000 0.000000
vt 0.875000 0.250000
vt 0.604143 0.279851
vt 0.662691 0.253473
vt 0.174995 0.000000
vt 0.375000 0.250000
vt 0.625000 0.750000
vt 0.144755 0.250000
vt 0.421140 0.750000
vt 0.375000 0.480245
vt 0.625000 0.500000
vt 0.394034 0.500000
vt 0.375000 1.000000
vt 0.375000 0.799995
vt 0.375000 0.500000
vt 0.125000 0.250000
vt 0.375000 0.750000
vt 0.125000 0.000000
vt 0.375000 0.500000
vt 0.375000 0.480245
vt 0.394034 0.500000
vt 0.375000 0.250000
vt 0.625000 0.500000
vt 0.375000 0.500000
vt 0.375000 0.480245
vt 0.394034 0.500000
vt 0.375000 0.250000
vt 0.625000 0.500000
vn 0.082595 -0.531139 -0.843249
vn 0.053613 -0.537744 -0.841402
vn 0.108074 -0.524928 -0.844257
vn 0.108074 -0.524928 -0.844257
vn -0.854869 -0.513056 0.077274
vn -0.855025 -0.507168 0.108228
vn -0.854598 -0.502522 0.130892
vn -0.854598 -0.502522 0.130892
vn -0.547092 -0.697048 0.463481
vn -0.547092 -0.697048 0.463481
vn -0.547092 -0.697048 0.463481
vn 0.463481 -0.697048 -0.547092
vn 0.463481 -0.697048 -0.547092
vn 0.463481 -0.697048 -0.547092
vn -0.810361 -0.543048 -0.220030
vn -0.810361 -0.543048 -0.220030
vn -0.277983 -0.578342 -0.766972
vn -0.277983 -0.578342 -0.766972
vn 0.114388 0.986768 0.114906
vn 0.112792 0.987194 0.112809
vn 0.112792 0.987194 0.112809
vn 0.000000 -1.000000 0.000000
vn 0.000000 -1.000000 0.000000
vn 0.000000 -1.000000 0.000000
vn 0.249584 0.935635 0.249589
vn 0.249578 0.935638 0.249583
vn 0.000000 -1.000000 0.000000
vn 0.000000 -1.000000 0.000000
vn 0.000000 -1.000000 0.000000
vn 0.000000 -1.000000 0.000000
vn 0.309332 0.899237 0.309332
vn 0.309333 0.899237 0.309332
vn 0.118086 0.985957 0.118086
vn 0.069029 0.989803 0.124598
vn 0.068730 0.989819 0.124636
vn 0.118086 0.985957 0.118086
vn 0.124614 0.989808 0.068934
vn 0.124650 0.989823 0.068651
vn 0.169455 0.951017 0.258557
vn 0.134208 0.967812 0.212905
vn 0.258334 0.951106 0.169292
vn 0.212721 0.967870 0.134077
vn 0.303517 0.849885 0.430782
vn 0.430780 0.849886 0.303516
vn 0.900917 0.310489 0.303225
vn 0.938470 0.335321 -0.082672
vn 0.938017 0.335310 -0.087695
vn 0.900917 0.310489 0.303225
vn -0.083354 0.334511 0.938698
vn 0.335925 0.306785 0.890526
vn 0.335925 0.306785 0.890526
vn -0.088067 0.334482 0.938278
vn 0.937207 0.335273 -0.096100
vn 0.937207 0.335273 -0.096100
vn -0.096314 0.334414 0.937492
vn -0.096314 0.334414 0.937492
vn 0.566182 0.556948 -0.607658
vn 0.566182 0.556948 -0.607658
vn 0.566182 0.556948 -0.607657
vn -0.607661 0.556944 0.566181
vn -0.607661 0.556944 0.566181
vn -0.607661 0.556944 0.566181
s 1
g pCube1
usemtl initialShadingGroup
f 12/10/1 9/13/2 3/12/3 4/8/4
s 2
f 8/9/5 10/6/6 1/1/7 2/7/8
s off
f 1/1/9 5/4/10 2/7/11
f 6/5/12 4/2/13 3/3/14
s 2
f 8/9/5 7/17/15 11/19/16 10/6/6
s 1
f 7/16/17 9/13/2 12/10/1 11/18/18
s 3
f 19/25/19 18/26/20 20/27/21
s 4
f 12/10/22 10/15/23 11/18/24
s 3
f 20/27/21 18/26/20 21/28/25 22/29/26
s 4
f 4/8/27 1/14/28 10/15/23 12/10/22
f 4/8/27 6/5/29 5/4/30 1/14/28
s 3
f 22/29/26 21/28/25 5/4/31 6/5/32
s 5
f 7/16/33 8/11/34 13/21/35 14/20/36
f 9/13/37 7/16/33 14/20/36 15/22/38
f 8/11/34 2/7/39 16/23/40 13/21/35
f 3/12/41 9/13/37 15/22/38 17/24/42
f 2/7/39 5/4/43 16/23/40
f 6/5/44 3/12/41 17/24/42
s 6
f 14/20/45 13/21/46 18/26/47 19/25/48
s 7
f 15/22/49 14/20/50 19/25/51 20/27/52
s 6
f 13/21/46 16/23/53 21/28/54 18/26/47
s 7
f 17/24/55 15/22/49 20/27/52 22/29/56
s off
f 16/23/57 5/4/58 21/28/59
f 6/5/60 17/24/61 22/29/62
